<?xml version="1.0" encoding="utf-8"?>
<!-- Generator: Adobe Illustrator 28.2.0, SVG Export Plug-In . SVG Version: 6.00 Build 0)  -->
<svg version="1.1" id="Capa_1" xmlns="http://www.w3.org/2000/svg" xmlns:xlink="http://www.w3.org/1999/xlink" x="0px" y="0px"
	 viewBox="0 0 450.4 145" style="enable-background:new 0 0 450.4 145;" xml:space="preserve">
<style type="text/css">
	.st0{fill:#0081C9;}
	.st1{fill:#FFFFFF;}
	.st2{fill:#164194;}
</style>
<path class="st0" d="M27.9,105.5c-6.1,0-11.1-5-11.1-11.2v-75c0-6.2,5-11.2,11.1-11.2h43.8c6.1,0,11.1,5,11.1,11.2v75
	c0,6.2-5,11.2-11.1,11.2H27.9z"/>
<path class="st0" d="M108,105.5c-6.2,0-11.3-5-11.3-11.2v-75c0-6.2,5.1-11.2,11.3-11.2h44.3c6.2,0,11.3,5,11.3,11.2v75
	c0,6.2-5.1,11.2-11.3,11.2H108z"/>
<path class="st0" d="M188.2,105.5c-6.1,0-11.2-5-11.2-11.2v-75c0-6.2,5.1-11.2,11.2-11.2h44c6.1,0,11.2,5,11.2,11.2v75
	c0,6.2-5.1,11.2-11.2,11.2H188.2z"/>
<g>
	<g>
		<g>
			<path class="st1" d="M232,9.5c5.7,0,10.3,4.6,10.3,10.3v74.4c0,5.7-4.6,10.3-10.3,10.3h-43.6c-5.7,0-10.3-4.6-10.3-10.3V19.8
				c0-5.7,4.6-10.3,10.3-10.3L232,9.5 M188.4,102.9H232c4.8,0,8.7-3.9,8.7-8.7V67.3c-8.9,5.5-19.3,8.7-30.5,8.7s-21.7-3.2-30.6-8.8
				v26.9C179.7,99,183.6,102.9,188.4,102.9 M232,7.9h-43.6c-6.5,0-11.9,5.3-11.9,11.9v74.4c0,6.5,5.3,11.9,11.9,11.9H232
				c6.5,0,11.9-5.3,11.9-11.9V19.8C243.9,13.2,238.6,7.9,232,7.9 M188.4,101.3c-4,0-7.2-3.2-7.2-7.2V70c8.8,5,18.8,7.6,29,7.6
				s20.1-2.6,28.9-7.5v24.1c0,4-3.2,7.2-7.2,7.2L188.4,101.3L188.4,101.3z"/>
			<g>
				<path class="st1" d="M218.3,87.7c-0.3-0.2-0.6-0.3-0.9-0.3c-0.3,0-0.6,0.1-0.9,0.3c-0.3,0.2-0.5,0.4-0.6,0.7
					c-0.1,0.3-0.2,0.6-0.2,1s0.1,0.7,0.2,1.1c0.1,0.3,0.4,0.6,0.6,0.7c0.3,0.2,0.6,0.3,0.9,0.3s0.6-0.1,0.9-0.3
					c0.3-0.2,0.5-0.4,0.6-0.7c0.1-0.3,0.2-0.6,0.2-1s-0.1-0.7-0.2-1C218.8,88.1,218.6,87.9,218.3,87.7z"/>
				<path class="st1" d="M211.2,87.4c-0.3,0-0.6,0.1-0.8,0.3c-0.2,0.2-0.3,0.4-0.3,0.7c0,0.3,0.1,0.6,0.3,0.8
					c0.2,0.2,0.5,0.3,0.8,0.3c0.6,0,1-0.1,1.4-0.4c0-0.6-0.1-1.1-0.4-1.3C211.9,87.5,211.6,87.4,211.2,87.4z"/>
				<path class="st1" d="M203.3,86.5c-0.3-0.2-0.7-0.3-1.1-0.3c-0.4,0-0.7,0.1-1.1,0.3c-0.3,0.2-0.6,0.5-0.8,0.9s-0.3,0.9-0.3,1.4
					s0.1,1,0.3,1.4s0.4,0.7,0.7,0.9c0.3,0.2,0.7,0.3,1.1,0.3c0.4,0,0.8-0.1,1.1-0.3c0.3-0.2,0.6-0.5,0.8-0.9s0.3-0.9,0.3-1.5
					c0-0.5-0.1-1-0.3-1.3C203.8,87,203.6,86.7,203.3,86.5z"/>
				<path class="st1" d="M224.9,87.7c-0.3-0.2-0.6-0.3-0.9-0.3c-0.3,0-0.6,0.1-0.9,0.3c-0.3,0.2-0.5,0.4-0.6,0.7
					c-0.1,0.3-0.2,0.6-0.2,1s0.1,0.7,0.2,1.1c0.1,0.3,0.4,0.6,0.6,0.7c0.3,0.2,0.6,0.3,0.9,0.3s0.6-0.1,0.9-0.3
					c0.3-0.2,0.5-0.4,0.6-0.7c0.1-0.3,0.2-0.6,0.2-1s-0.1-0.7-0.2-1C225.3,88.1,225.1,87.9,224.9,87.7z"/>
				<path class="st1" d="M210.3,76c-11.2,0-21.7-3.2-30.6-8.8v26.9c0,4.8,3.9,8.7,8.7,8.7H232c4.8,0,8.7-3.9,8.7-8.7V67.3
					C231.9,72.8,221.5,76,210.3,76z M191.5,92.5h-1.4v-7.3h1.4V92.5z M197.6,91.6c-0.2,0.3-0.5,0.5-0.9,0.7s-0.9,0.3-1.5,0.3
					c-0.3,0-0.7-0.1-1.1-0.2c-0.4-0.1-0.8-0.3-1-0.4l0.3-1.1c0.3,0.1,0.6,0.3,0.9,0.4c0.3,0.1,0.6,0.2,0.9,0.2c0.4,0,0.8-0.1,1-0.2
					s0.3-0.3,0.3-0.6c0-0.2-0.1-0.3-0.3-0.5c-0.2-0.1-0.4-0.3-0.8-0.5l-0.3-0.2c-0.5-0.3-0.9-0.5-1.1-0.7c-0.3-0.2-0.5-0.5-0.7-0.7
					c-0.2-0.3-0.3-0.6-0.3-1s0.1-0.7,0.3-1s0.5-0.5,0.9-0.7s0.8-0.3,1.4-0.3c0.6,0,1.3,0.2,2.1,0.5l-0.5,1.1
					c-0.3-0.1-0.6-0.3-0.8-0.3c-0.2-0.1-0.5-0.1-0.8-0.1s-0.6,0.1-0.8,0.2s-0.3,0.3-0.3,0.6c0,0.2,0.1,0.4,0.2,0.5
					c0.2,0.1,0.4,0.3,0.8,0.5l0.3,0.2l0.3,0.2c0.4,0.2,0.8,0.5,1,0.6c0.3,0.2,0.5,0.4,0.6,0.7c0.2,0.3,0.3,0.6,0.3,0.9
					C197.9,91,197.8,91.3,197.6,91.6z M205.3,90.8c-0.3,0.6-0.7,1-1.3,1.4c-0.5,0.3-1.2,0.5-1.9,0.5s-1.4-0.2-1.9-0.5
					s-1-0.8-1.2-1.4c-0.3-0.6-0.4-1.2-0.4-1.9c0-0.7,0.1-1.4,0.4-2c0.3-0.6,0.7-1,1.3-1.4c0.5-0.3,1.2-0.5,1.9-0.5s1.4,0.2,1.9,0.5
					s1,0.8,1.2,1.4s0.4,1.2,0.4,1.9S205.6,90.2,205.3,90.8z M213.2,91.2c-0.4,0.6-1,1.1-1.6,1.4s-1.3,0.6-1.9,0.6l-0.2-1.2
					c1.3-0.4,2.2-0.9,2.7-1.6c-0.3,0.2-0.7,0.2-1.1,0.2c-0.4,0-0.8-0.1-1.2-0.3c-0.4-0.2-0.6-0.5-0.8-0.8s-0.3-0.7-0.3-1.1
					s0.1-0.8,0.3-1.2c0.2-0.3,0.5-0.6,0.8-0.8c0.4-0.2,0.8-0.3,1.2-0.3c0.5,0,1,0.1,1.4,0.3c0.4,0.2,0.7,0.5,1,1
					c0.2,0.4,0.4,0.9,0.4,1.6C213.9,89.9,213.7,90.6,213.2,91.2z M220.1,91c-0.3,0.5-0.6,0.9-1.1,1.2c-0.5,0.3-1,0.4-1.5,0.4
					s-1.1-0.1-1.5-0.4s-0.8-0.7-1.1-1.1c-0.3-0.5-0.4-1-0.4-1.6s0.1-1.1,0.4-1.6c0.3-0.5,0.6-0.9,1.1-1.1s1-0.4,1.5-0.4
					c0.6,0,1.1,0.1,1.5,0.4c0.5,0.3,0.8,0.6,1.1,1.1s0.4,1,0.4,1.6C220.4,90,220.3,90.6,220.1,91z M226.6,91
					c-0.3,0.5-0.6,0.9-1.1,1.2c-0.5,0.3-1,0.4-1.5,0.4c-0.6,0-1.1-0.1-1.5-0.4s-0.8-0.7-1.1-1.1c-0.3-0.5-0.4-1-0.4-1.6
					s0.1-1.1,0.4-1.6c0.3-0.5,0.6-0.9,1.1-1.1s1-0.4,1.5-0.4c0.6,0,1.1,0.1,1.5,0.4c0.5,0.3,0.8,0.6,1.1,1.1s0.4,1,0.4,1.6
					C227,90,226.8,90.6,226.6,91z M230.5,92.5h-1.4V88l-1.2,0.5l-0.5-1l2.2-1h0.9V92.5z"/>
			</g>
			<path class="st1" d="M210.2,38.3c-2.7,0-5-2.2-5-5c0-2.7,2.2-5,5-5c2.7,0,5,2.2,5,5S213,38.3,210.2,38.3 M210.2,30.3
				c-1.7,0-3.1,1.4-3.1,3.1c0,1.7,1.4,3.1,3.1,3.1c1.7,0,3.1-1.4,3.1-3.1C213.4,31.7,212,30.3,210.2,30.3"/>
			<path class="st1" d="M201.1,41.2c-1.8-2.1-2.9-4.8-2.9-7.8c0-2.4,0.7-4.6,1.9-6.5l-1.5-1.1c-1.4,2.2-2.3,4.8-2.3,7.6
				c0,3.5,1.3,6.7,3.4,9.1L201.1,41.2z"/>
			<path class="st1" d="M199.8,24.3l1.3,1.3c0.4-0.5,0.8-0.9,1.3-1.3l-1.3-1.3C200.7,23.4,200.2,23.8,199.8,24.3"/>
			<path class="st1" d="M210.3,19.5c-2.8,0-5.4,0.8-7.6,2.3l1.1,1.5c1.9-1.2,4.1-1.9,6.5-1.9c3.1,0,6,1.2,8.3,3.3l1.6-1
				C217.5,21,214,19.5,210.3,19.5"/>
			<path class="st1" d="M215.8,38.5c-1.4,1.5-3.3,2.4-5.5,2.4c-4.2,0-7.5-3.4-7.5-7.6s3.4-7.5,7.6-7.5c1.5,0,3,0.5,4.3,1.3l1.7-1
				c-1.7-1.3-3.7-2.1-5.9-2.1c-5.2,0-9.4,4.2-9.4,9.4s4.2,9.4,9.4,9.4c2.8,0,5.3-1.2,7-3.2L215.8,38.5z"/>
			<path class="st1" d="M216.9,43.4c-1.9,1.3-4.2,2-6.7,2c-3,0-5.7-1.1-7.8-2.9l-1.3,1.3c2.4,2.1,5.6,3.4,9.1,3.4
				c2.9,0,5.6-0.9,7.8-2.4L216.9,43.4z"/>
			<path class="st1" d="M221.4,25.1l-5.4,3.3c0,0,1.8,2.1,1.8,5c0,1.3-0.3,2.6-0.9,3.6l1.5,1.1c0.8-1.4,1.3-3,1.3-4.7
				c0-1.6-0.4-3.1-1.1-4.4l2.2-1.4c1,1.8,1.5,3.8,1.5,5.8c0,3.5-1.5,6.6-3.9,8.8l1.1,1.4c2.8-2.5,4.6-6.2,4.6-10.3
				C224.1,28.5,221.4,25.1,221.4,25.1"/>
			<path class="st1" d="M200.4,54.1c-2.1,0-3.9,1.7-3.9,3.9c0,2.1,1.7,3.9,3.9,3.9c2.1,0,3.9-1.7,3.9-3.9
				C204.3,55.8,202.5,54.1,200.4,54.1 M200.4,60.3c-1.3,0-2.3-1-2.3-2.3s1-2.3,2.3-2.3s2.3,1,2.3,2.3
				C202.7,59.2,201.6,60.3,200.4,60.3"/>
			<path class="st1" d="M187.4,61.6h-1.6V55h1.6V61.6z M186.6,54.1c-0.6,0-1-0.4-1-1s0.4-1,1-1s1,0.4,1,1S187.1,54.1,186.6,54.1"/>
			<path class="st1" d="M209.5,54.1c-2.1,0-3.9,1.7-3.9,3.9v3.7h1.7v-3.8c0-1.2,1-2.2,2.2-2.2s2.1,0.9,2.2,2.1v3.9h1.7V58
				C213.3,55.8,211.6,54.1,209.5,54.1"/>
			<path class="st1" d="M218.6,60.4L218.6,60.4c0,0-0.3,0-0.4,0c-0.7,0-1-0.2-1-1.2v-3.8h1.4v-1.3h-1.4v-1.5h-1.7v1.5h-1v1.3h1V59
				c0,0.5,0,1.3,0.4,1.9c0.4,0.7,1,1,1.9,1c0.4,0,0.8-0.1,0.8-0.1L218.6,60.4L218.6,60.4z"/>
			<path class="st1" d="M192.8,61.9c-2.2,0-3.9-1.8-3.9-3.9c0-2.1,1.8-3.9,3.9-3.9c1.8,0,2.8,1.2,2.8,1.2l-1,1.3
				c0,0-0.6-0.9-1.8-0.9c-1.3,0-2.3,1-2.3,2.3c0,1.2,1,2.3,2.3,2.3c1.2,0,1.8-0.9,1.8-0.9l1,1.3C195.7,60.6,194.6,61.9,192.8,61.9"
				/>
			<path class="st1" d="M232.1,61.9c-2.2,0-3.9-1.8-3.9-3.9c0-2.1,1.8-3.9,3.9-3.9c1.8,0,2.8,1.2,2.8,1.2l-1,1.3
				c0,0-0.6-0.9-1.8-0.9c-1.3,0-2.3,1-2.3,2.3c0,1.2,1,2.3,2.3,2.3c1.2,0,1.8-0.9,1.8-0.9l1,1.3C234.9,60.6,233.9,61.9,232.1,61.9"
				/>
			<path class="st1" d="M223.3,54c-2.3,0-3.6,1.9-3.6,3.9c0,2.3,1.6,3.9,3.9,3.9c2.3,0,3.2-1.7,3.2-1.7l-1.2-0.9c0,0-0.6,1.1-2,1.1
				c-1.2,0-2.1-0.8-2.2-1.9h5.5c0,0,0-0.4,0-0.5C226.9,56.3,226.1,54,223.3,54 M221.4,57.2c0.1-1,0.9-1.6,1.9-1.6s1.8,0.6,1.9,1.6
				H221.4z"/>
		</g>
	</g>
</g>
<g>
	<g>
		<g>
			<path class="st1" d="M71.8,9.5c5.7,0,10.3,4.6,10.3,10.3v74.4c0,5.7-4.6,10.3-10.3,10.3H28.2c-5.7,0-10.3-4.6-10.3-10.3V19.8
				c0-5.7,4.6-10.3,10.3-10.3L71.8,9.5 M28.2,102.9h43.6c4.8,0,8.7-3.9,8.7-8.7V67.3C71.6,72.8,61.2,76,50,76s-21.7-3.2-30.6-8.8
				v26.9C19.5,99,23.4,102.9,28.2,102.9 M71.8,7.9H28.2c-6.5,0-11.8,5.3-11.8,11.9v74.4c0,6.5,5.3,11.9,11.8,11.9h43.6
				c6.5,0,11.9-5.3,11.9-11.9V19.8C83.7,13.2,78.4,7.9,71.8,7.9 M28.2,101.3c-4,0-7.2-3.2-7.2-7.2V70c8.8,5,18.8,7.6,29,7.6
				s20.1-2.6,28.9-7.5v24.1c0,4-3.2,7.2-7.2,7.2L28.2,101.3L28.2,101.3z"/>
			<g>
				<path class="st1" d="M60.3,87.7c-0.3-0.2-0.6-0.3-0.9-0.3s-0.6,0.1-0.9,0.3c-0.3,0.2-0.5,0.4-0.6,0.7s-0.2,0.6-0.2,1
					s0.1,0.7,0.2,1.1c0.1,0.3,0.4,0.6,0.6,0.7c0.3,0.2,0.6,0.3,0.9,0.3s0.6-0.1,0.9-0.3c0.3-0.2,0.5-0.4,0.6-0.7
					c0.1-0.3,0.2-0.6,0.2-1s-0.1-0.7-0.2-1C60.8,88.1,60.6,87.9,60.3,87.7z"/>
				<polygon class="st1" points="53.4,90.7 53.4,88.6 51.7,90.7 				"/>
				<path class="st1" d="M66.8,87.7c-0.3-0.2-0.6-0.3-0.9-0.3s-0.6,0.1-0.9,0.3c-0.3,0.2-0.5,0.4-0.6,0.7c-0.1,0.3-0.2,0.6-0.2,1
					s0.1,0.7,0.2,1.1c0.1,0.3,0.4,0.6,0.6,0.7c0.3,0.2,0.6,0.3,0.9,0.3s0.6-0.1,0.9-0.3c0.3-0.2,0.5-0.4,0.6-0.7
					c0.1-0.3,0.2-0.6,0.2-1s-0.1-0.7-0.2-1C67.3,88.1,67.1,87.9,66.8,87.7z"/>
				<path class="st1" d="M40.9,86.5c-0.3-0.2-0.7-0.3-1.1-0.3c-0.4,0-0.7,0.1-1.1,0.3c-0.3,0.2-0.6,0.5-0.8,0.9s-0.3,0.9-0.3,1.4
					s0.1,1,0.3,1.4s0.4,0.7,0.7,0.9c0.3,0.2,0.7,0.3,1.1,0.3c0.4,0,0.8-0.1,1.1-0.3c0.3-0.2,0.6-0.5,0.8-0.9s0.3-0.9,0.3-1.5
					c0-0.5-0.1-1-0.3-1.3C41.5,87,41.2,86.7,40.9,86.5z"/>
				<path class="st1" d="M50.1,76c-11.2,0-21.7-3.2-30.6-8.8v26.9c0,4.8,3.9,8.7,8.7,8.7h43.6c4.8,0,8.7-3.9,8.7-8.7V67.3
					C71.7,72.8,61.3,76,50.1,76z M29.2,92.5h-1.4v-7.3h1.4V92.5z M35.2,91.6c-0.2,0.3-0.5,0.5-0.9,0.7s-0.9,0.3-1.5,0.3
					c-0.3,0-0.7-0.1-1.1-0.2c-0.5-0.1-0.8-0.3-1-0.4l0.3-1.1c0.3,0.1,0.6,0.3,0.9,0.4c0.3,0.1,0.6,0.2,0.9,0.2c0.4,0,0.8-0.1,1-0.2
					s0.3-0.3,0.3-0.6c0-0.2-0.1-0.3-0.3-0.5c-0.2-0.1-0.4-0.3-0.8-0.5l-0.3-0.3c-0.5-0.3-0.9-0.5-1.1-0.7c-0.3-0.2-0.5-0.5-0.7-0.7
					c-0.2-0.3-0.3-0.6-0.3-1s0.1-0.7,0.3-1s0.5-0.5,0.9-0.7s0.8-0.3,1.4-0.3c0.6,0,1.3,0.2,2.1,0.5l-0.7,1.1
					c-0.3-0.1-0.6-0.3-0.8-0.3c-0.2-0.1-0.5-0.1-0.8-0.1s-0.6,0.1-0.8,0.2s-0.3,0.3-0.3,0.6c0,0.2,0.1,0.4,0.2,0.5
					c0.2,0.1,0.4,0.3,0.8,0.5l0.3,0.2l0.3,0.2c0.4,0.2,0.8,0.5,1,0.6c0.3,0.2,0.5,0.4,0.6,0.7c0.2,0.3,0.3,0.6,0.3,0.9
					C35.5,91,35.4,91.3,35.2,91.6z M42.9,90.8c-0.3,0.6-0.7,1-1.3,1.4c-0.5,0.2-1.1,0.4-1.9,0.4c-0.7,0-1.4-0.2-1.9-0.5
					s-1-0.8-1.2-1.4c-0.3-0.6-0.4-1.2-0.4-1.9c0-0.7,0.1-1.4,0.4-2c0.3-0.6,0.7-1,1.3-1.4c0.5-0.3,1.2-0.5,1.9-0.5s1.4,0.2,1.9,0.5
					s1,0.8,1.2,1.4c0.3,0.6,0.4,1.2,0.4,1.9C43.3,89.5,43.2,90.2,42.9,90.8z M49.4,92.5H48V88l-1.2,0.5l-0.5-1l2.2-1h0.9V92.5z
					 M55.8,91.8h-1v1.4h-1.4v-1.4h-3l-0.2-1.2l3.5-4.4h1v4.4l0,0h1.1L55.8,91.8z M62,91c-0.3,0.5-0.6,0.9-1.1,1.2
					c-0.5,0.3-1,0.4-1.5,0.4s-1.1-0.1-1.5-0.4s-0.8-0.7-1.1-1.1c-0.3-0.5-0.4-1-0.4-1.6s0.1-1.1,0.4-1.6s0.6-0.9,1.1-1.1
					s1-0.4,1.5-0.4c0.6,0,1.1,0.1,1.5,0.4c0.5,0.3,0.8,0.6,1.1,1.1c0.3,0.5,0.4,1,0.4,1.6C62.4,90,62.3,90.6,62,91z M68.6,91
					c-0.3,0.5-0.6,0.9-1.1,1.2c-0.5,0.3-1,0.4-1.5,0.4s-1.1-0.1-1.5-0.4c-0.5-0.3-0.8-0.7-1.1-1.1c-0.3-0.5-0.4-1-0.4-1.6
					s0.1-1.1,0.4-1.6s0.6-0.9,1.1-1.1s1-0.4,1.5-0.4c0.6,0,1.1,0.1,1.5,0.4c0.5,0.3,0.8,0.6,1.1,1.1c0.3,0.5,0.4,1,0.4,1.6
					C69,90,68.8,90.6,68.6,91z M72.5,92.5h-1.4V88l-1.2,0.5l-0.5-1l2.2-1h0.9V92.5z"/>
			</g>
			<path class="st1" d="M50,38.3c-2.7,0-5-2.2-5-5c0-2.7,2.2-5,5-5c2.7,0,5,2.2,5,5S52.8,38.3,50,38.3 M50,30.3
				c-1.7,0-3.1,1.4-3.1,3.1c0,1.7,1.4,3.1,3.1,3.1c1.7,0,3.1-1.4,3.1-3.1C53.2,31.7,51.8,30.3,50,30.3"/>
			<path class="st1" d="M40.9,41.2c-1.8-2.1-2.9-4.8-2.9-7.8c0-2.4,0.7-4.6,1.9-6.5l-1.5-1.1c-1.4,2.2-2.3,4.8-2.3,7.6
				c0,3.5,1.3,6.7,3.4,9.1L40.9,41.2z"/>
			<path class="st1" d="M39.6,24.3l1.3,1.3c0.4-0.5,0.8-0.9,1.3-1.3L40.9,23C40.5,23.4,40.1,23.8,39.6,24.3"/>
			<path class="st1" d="M50.1,19.5c-2.8,0-5.4,0.8-7.6,2.3l1.1,1.5c1.9-1.2,4.1-1.9,6.5-1.9c3.1,0,6,1.2,8.3,3.3l1.6-1
				C57.4,21,53.8,19.5,50.1,19.5"/>
			<path class="st1" d="M55.6,38.5c-1.4,1.5-3.3,2.4-5.5,2.4c-4.2,0-7.5-3.4-7.5-7.6s3.4-7.5,7.6-7.5c1.5,0,3,0.5,4.3,1.3l1.7-1
				c-1.7-1.3-3.7-2.1-5.9-2.1c-5.2,0-9.4,4.2-9.4,9.4s4.2,9.4,9.4,9.4c2.8,0,5.3-1.2,7-3.2L55.6,38.5z"/>
			<path class="st1" d="M56.7,43.4c-1.9,1.3-4.2,2-6.7,2c-3,0-5.7-1.1-7.8-2.9l-1.3,1.3c2.4,2.1,5.6,3.4,9.1,3.4
				c2.9,0,5.6-0.9,7.8-2.4L56.7,43.4z"/>
			<path class="st1" d="M61.2,25.1l-5.4,3.3c0,0,1.8,2.1,1.8,5c0,1.3-0.3,2.6-0.9,3.6l1.5,1.1c0.8-1.4,1.3-3,1.3-4.7
				c0-1.6-0.4-3.1-1.1-4.4l2.2-1.4c1,1.8,1.5,3.8,1.5,5.8c0,3.5-1.5,6.6-3.9,8.8l1.1,1.4c2.8-2.5,4.6-6.2,4.6-10.3
				C63.9,28.5,61.2,25.1,61.2,25.1"/>
			<path class="st1" d="M40.2,54.1c-2.1,0-3.9,1.7-3.9,3.9c0,2.1,1.7,3.9,3.9,3.9c2.1,0,3.9-1.7,3.9-3.9S42.3,54.1,40.2,54.1
				 M40.2,60.3c-1.3,0-2.3-1-2.3-2.3s1-2.3,2.3-2.3s2.3,1,2.3,2.3C42.5,59.2,41.5,60.3,40.2,60.3"/>
			<path class="st1" d="M27.2,61.6h-1.6V55h1.6V61.6z M26.4,54.1c-0.6,0-1-0.4-1-1s0.4-1,1-1s1,0.4,1,1S26.9,54.1,26.4,54.1"/>
			<path class="st1" d="M49.3,54.1c-2.1,0-3.9,1.7-3.9,3.9v3.7h1.7v-3.8c0-1.2,1-2.2,2.2-2.2s2.1,0.9,2.2,2.1v3.9h1.7V58
				C53.2,55.8,51.4,54.1,49.3,54.1"/>
			<path class="st1" d="M58.4,60.4L58.4,60.4c0,0-0.3,0-0.4,0c-0.7,0-1-0.2-1-1.2v-3.8h1.4v-1.3H57v-1.5h-1.7v1.5h-1v1.3h1V59
				c0,0.5,0,1.3,0.4,1.9c0.4,0.7,1,1,1.9,1c0.4,0,0.8-0.1,0.8-0.1V60.4z"/>
			<path class="st1" d="M32.6,61.9c-2.2,0-3.9-1.8-3.9-3.9c0-2.1,1.8-3.9,3.9-3.9c1.8,0,2.8,1.2,2.8,1.2l-1,1.3c0,0-0.6-0.9-1.8-0.9
				c-1.3,0-2.3,1-2.3,2.3c0,1.2,1,2.3,2.3,2.3c1.2,0,1.8-0.9,1.8-0.9l1,1.3C35.5,60.6,34.4,61.9,32.6,61.9"/>
			<path class="st1" d="M71.9,61.9c-2.2,0-3.9-1.8-3.9-3.9c0-2.1,1.8-3.9,3.9-3.9c1.8,0,2.8,1.2,2.8,1.2l-1,1.3c0,0-0.6-0.9-1.8-0.9
				c-1.3,0-2.3,1-2.3,2.3c0,1.2,1,2.3,2.3,2.3c1.2,0,1.8-0.9,1.8-0.9l1,1.3C74.7,60.6,73.7,61.9,71.9,61.9"/>
			<path class="st1" d="M63.1,54c-2.3,0-3.6,1.9-3.6,3.9c0,2.3,1.6,3.9,3.9,3.9c2.3,0,3.2-1.7,3.2-1.7l-1.2-0.9c0,0-0.6,1.1-2,1.1
				c-1.2,0-2.1-0.8-2.2-1.9h5.5c0,0,0-0.4,0-0.5C66.7,56.3,65.9,54,63.1,54 M61.2,57.2c0.1-1,0.9-1.6,1.9-1.6c1,0,1.8,0.6,1.9,1.6
				H61.2z"/>
		</g>
	</g>
</g>
<path class="st0" d="M268.1,105.5c-6.1,0-11.1-5-11.1-11.2v-75c0-6.2,5-11.2,11.1-11.2h43.8c6.1,0,11.1,5,11.1,11.2v75
	c0,6.2-5,11.2-11.1,11.2H268.1z"/>
<g>
	<g>
		<g>
			<g>
				<path class="st1" d="M305.9,90.6c0.3,0.2,0.6,0.3,0.9,0.3c0.3,0,0.6-0.1,0.9-0.3c0.3-0.2,0.5-0.4,0.6-0.7c0.1-0.3,0.2-0.6,0.2-1
					c0-0.4-0.1-0.7-0.2-1c-0.2-0.3-0.4-0.5-0.6-0.7c-0.3-0.2-0.6-0.3-0.9-0.3c-0.3,0-0.6,0.1-0.9,0.3c-0.3,0.2-0.5,0.4-0.6,0.7
					c-0.1,0.3-0.2,0.6-0.2,1c0,0.4,0.1,0.7,0.2,1.1C305.4,90.2,305.6,90.4,305.9,90.6z"/>
				<path class="st1" d="M280.1,85.9c-0.3-0.2-0.7-0.3-1.1-0.3c-0.4,0-0.7,0.1-1.1,0.3c-0.3,0.2-0.6,0.5-0.8,0.9
					c-0.2,0.4-0.3,0.9-0.3,1.4c0,0.5,0.1,1,0.3,1.4c0.2,0.4,0.4,0.7,0.7,0.9c0.3,0.2,0.7,0.3,1.1,0.3c0.4,0,0.8-0.1,1.1-0.3
					c0.3-0.2,0.6-0.5,0.8-0.9c0.2-0.4,0.3-0.9,0.3-1.5c0-0.5-0.1-1-0.3-1.4C280.6,86.4,280.4,86.1,280.1,85.9z"/>
				<path class="st1" d="M299.3,90.6c0.3,0.2,0.6,0.3,0.9,0.3c0.3,0,0.6-0.1,0.9-0.3c0.3-0.2,0.5-0.4,0.6-0.7c0.1-0.3,0.2-0.6,0.2-1
					c0-0.4-0.1-0.7-0.2-1c-0.2-0.3-0.4-0.5-0.6-0.7c-0.3-0.2-0.6-0.3-0.9-0.3c-0.3,0-0.6,0.1-0.9,0.3c-0.3,0.2-0.5,0.4-0.6,0.7
					c-0.1,0.3-0.2,0.6-0.2,1c0,0.4,0.1,0.7,0.2,1.1C298.9,90.2,299.1,90.4,299.3,90.6z"/>
				<path class="st1" d="M259.3,67.5v26.9c0,4.8,3.9,8.7,8.7,8.7h43.6c4.8,0,8.7-3.9,8.7-8.7V67.5c-8.9,5.5-19.3,8.7-30.5,8.7
					C278.7,76.2,268.2,73,259.3,67.5z M268.3,91.9h-1.4v-7.4h1.4V91.9z M274.3,91.1c-0.2,0.3-0.5,0.5-0.9,0.7
					c-0.4,0.2-0.9,0.3-1.5,0.3c-0.3,0-0.7-0.1-1.1-0.2c-0.5-0.1-0.8-0.3-1-0.4l0.3-1.1c0.3,0.1,0.6,0.3,0.9,0.4
					c0.3,0.1,0.6,0.2,0.9,0.2c0.4,0,0.8-0.1,1-0.2c0.2-0.1,0.3-0.3,0.3-0.6c0-0.2-0.1-0.3-0.3-0.5c-0.2-0.1-0.4-0.3-0.8-0.5
					l-0.3-0.2c-0.5-0.3-0.9-0.5-1.2-0.7c-0.3-0.2-0.5-0.5-0.7-0.7c-0.2-0.3-0.3-0.6-0.3-1c0-0.4,0.1-0.7,0.3-1
					c0.2-0.3,0.5-0.5,0.9-0.7c0.4-0.2,0.8-0.3,1.4-0.3c0.6,0,1.3,0.2,2.1,0.6l-0.5,1.1c-0.3-0.1-0.6-0.3-0.8-0.3
					c-0.2-0.1-0.5-0.1-0.8-0.1c-0.3,0-0.6,0.1-0.8,0.2c-0.2,0.1-0.3,0.3-0.3,0.6c0,0.2,0.1,0.4,0.2,0.5c0.2,0.1,0.4,0.3,0.8,0.5
					l0.3,0.2l0.3,0.2c0.4,0.2,0.8,0.5,1,0.6c0.3,0.2,0.5,0.4,0.6,0.7c0.2,0.3,0.3,0.6,0.3,0.9C274.7,90.4,274.6,90.8,274.3,91.1z
					 M282.1,90.2c-0.3,0.6-0.7,1-1.3,1.4c-0.5,0.3-1.2,0.5-1.9,0.5c-0.7,0-1.4-0.2-1.9-0.5c-0.5-0.3-1-0.8-1.2-1.4s-0.4-1.2-0.4-1.9
					c0-0.7,0.1-1.4,0.4-2c0.3-0.6,0.7-1,1.3-1.4c0.5-0.3,1.2-0.5,1.9-0.5c0.7,0,1.4,0.2,1.9,0.5c0.5,0.3,1,0.8,1.2,1.4
					c0.3,0.6,0.4,1.2,0.4,1.9C282.5,88.9,282.4,89.6,282.1,90.2z M312.4,85.8h0.9v6.1h-1.4v-4.6l-1.2,0.5l-0.5-1L312.4,85.8z
					 M304.1,87.2c0.3-0.5,0.6-0.9,1.1-1.1c0.5-0.3,1-0.4,1.6-0.4c0.6,0,1.1,0.1,1.5,0.4c0.5,0.3,0.8,0.6,1.1,1.1
					c0.3,0.5,0.4,1,0.4,1.6c0,0.6-0.1,1.2-0.4,1.7c-0.3,0.5-0.6,0.9-1.1,1.2c-0.5,0.3-1,0.4-1.5,0.4c-0.6,0-1.1-0.1-1.5-0.4
					c-0.5-0.3-0.8-0.7-1.1-1.2c-0.3-0.5-0.4-1-0.4-1.7C303.8,88.2,303.9,87.7,304.1,87.2z M297.6,87.2c0.3-0.5,0.6-0.9,1.1-1.1
					c0.5-0.3,1-0.4,1.6-0.4c0.6,0,1.1,0.1,1.5,0.4c0.5,0.3,0.8,0.6,1.1,1.1c0.3,0.5,0.4,1,0.4,1.6c0,0.6-0.1,1.2-0.4,1.7
					c-0.3,0.5-0.6,0.9-1.1,1.2c-0.5,0.3-1,0.4-1.5,0.4c-0.6,0-1.1-0.1-1.5-0.4c-0.5-0.3-0.8-0.7-1.1-1.2c-0.3-0.5-0.4-1-0.4-1.7
					C297.2,88.2,297.3,87.7,297.6,87.2z M295.1,89.5c-0.2-0.2-0.5-0.3-0.8-0.3c-0.2,0-0.4,0.1-0.6,0.2c-0.2,0.1-0.3,0.2-0.3,0.4
					h-1.2l0.2-3.9h4l-0.2,1.1h-2.6l-0.1,1.3c0.2-0.1,0.5-0.2,0.8-0.2c0.5,0,1,0.1,1.3,0.3c0.4,0.2,0.6,0.5,0.8,0.8
					c0.2,0.3,0.3,0.7,0.3,1.1c0,0.5-0.1,0.9-0.3,1.3c-0.2,0.4-0.5,0.7-0.9,0.9c-0.4,0.2-0.9,0.3-1.4,0.3c-0.4,0-0.8-0.1-1.2-0.2
					c-0.4-0.1-0.8-0.3-1.2-0.5l0.7-1c0.3,0.2,0.6,0.3,0.8,0.4s0.5,0.1,0.8,0.1c0.4,0,0.7-0.1,1-0.3c0.3-0.2,0.4-0.5,0.4-0.9
					C295.4,90,295.3,89.7,295.1,89.5z M291.2,90.1l-0.1,1.2h-1v1.4h-1.4v-1.4h-3l-0.2-1.2l3.5-4.4h1v4.4H291.2z"/>
				<path class="st1" d="M311.8,7.9h-43.6c-6.5,0-11.8,5.3-11.8,11.9v74.4c0,6.5,5.3,11.9,11.8,11.9h43.6c6.5,0,11.9-5.3,11.9-11.9
					V19.8C323.7,13.2,318.4,7.9,311.8,7.9z M322.1,94.2c0,5.7-4.6,10.3-10.3,10.3h-43.6c-5.7,0-10.3-4.6-10.3-10.3V19.8
					c0-5.7,4.6-10.3,10.3-10.3h43.6c5.7,0,10.3,4.6,10.3,10.3V94.2z"/>
				<polygon class="st1" points="288.6,90.1 288.6,88 287,90.1 				"/>
			</g>
			<path class="st1" d="M290,38.3c-2.7,0-5-2.2-5-5c0-2.7,2.2-5,5-5c2.7,0,5,2.2,5,5S292.8,38.3,290,38.3 M290,30.3
				c-1.7,0-3.1,1.4-3.1,3.1c0,1.7,1.4,3.1,3.1,3.1c1.7,0,3.1-1.4,3.1-3.1C293.2,31.7,291.8,30.3,290,30.3"/>
			<path class="st1" d="M280.9,41.2c-1.8-2.1-2.9-4.8-2.9-7.8c0-2.4,0.7-4.6,1.9-6.5l-1.5-1.1c-1.4,2.2-2.3,4.8-2.3,7.6
				c0,3.5,1.3,6.7,3.4,9.1L280.9,41.2z"/>
			<path class="st1" d="M279.6,24.3l1.3,1.3c0.4-0.5,0.8-0.9,1.3-1.3l-1.3-1.3C280.5,23.4,280.1,23.8,279.6,24.3"/>
			<path class="st1" d="M290.1,19.5c-2.8,0-5.4,0.8-7.6,2.3l1.1,1.5c1.9-1.2,4.1-1.9,6.5-1.9c3.1,0,6,1.2,8.3,3.3l1.6-1
				C297.4,21,293.8,19.5,290.1,19.5"/>
			<path class="st1" d="M295.6,38.5c-1.4,1.5-3.3,2.4-5.5,2.4c-4.2,0-7.5-3.4-7.5-7.6s3.4-7.5,7.6-7.5c1.5,0,3,0.5,4.3,1.3l1.7-1
				c-1.7-1.3-3.7-2.1-5.9-2.1c-5.2,0-9.4,4.2-9.4,9.4s4.2,9.4,9.4,9.4c2.8,0,5.3-1.2,7-3.2L295.6,38.5z"/>
			<path class="st1" d="M296.7,43.4c-1.9,1.3-4.2,2-6.7,2c-3,0-5.7-1.1-7.8-2.9l-1.3,1.3c2.4,2.1,5.6,3.4,9.1,3.4
				c2.9,0,5.6-0.9,7.8-2.4L296.7,43.4z"/>
			<path class="st1" d="M301.2,25.1l-5.4,3.3c0,0,1.8,2.1,1.8,5c0,1.3-0.3,2.6-0.9,3.6l1.5,1.1c0.8-1.4,1.3-3,1.3-4.7
				c0-1.6-0.4-3.1-1.1-4.4l2.2-1.4c1,1.8,1.5,3.8,1.5,5.8c0,3.5-1.5,6.6-3.9,8.8l1.1,1.4c2.8-2.5,4.6-6.2,4.6-10.3
				C303.9,28.5,301.2,25.1,301.2,25.1"/>
			<path class="st1" d="M280.2,54.1c-2.1,0-3.9,1.7-3.9,3.9c0,2.1,1.7,3.9,3.9,3.9c2.1,0,3.9-1.7,3.9-3.9S282.3,54.1,280.2,54.1
				 M280.2,60.3c-1.3,0-2.3-1-2.3-2.3s1-2.3,2.3-2.3c1.3,0,2.3,1,2.3,2.3C282.5,59.2,281.5,60.3,280.2,60.3"/>
			<path class="st1" d="M267.2,61.6h-1.6V55h1.6V61.6z M266.4,54.1c-0.6,0-1-0.4-1-1s0.4-1,1-1c0.6,0,1,0.4,1,1
				S266.9,54.1,266.4,54.1"/>
			<path class="st1" d="M289.3,54.1c-2.1,0-3.9,1.7-3.9,3.9v3.7h1.7v-3.8c0-1.2,1-2.2,2.2-2.2c1.2,0,2.1,0.9,2.2,2.1v3.9h1.7V58
				C293.2,55.8,291.4,54.1,289.3,54.1"/>
			<path class="st1" d="M298.4,60.4L298.4,60.4c0,0-0.3,0-0.4,0c-0.7,0-1-0.2-1-1.2v-3.8h1.4v-1.3H297v-1.5h-1.7v1.5h-1v1.3h1V59
				c0,0.5,0,1.3,0.4,1.9c0.4,0.7,1,1,1.9,1c0.4,0,0.8-0.1,0.8-0.1V60.4z"/>
			<path class="st1" d="M272.6,61.9c-2.2,0-3.9-1.8-3.9-3.9c0-2.1,1.8-3.9,3.9-3.9c1.8,0,2.8,1.2,2.8,1.2l-1,1.3
				c0,0-0.6-0.9-1.8-0.9c-1.3,0-2.3,1-2.3,2.3c0,1.2,1,2.3,2.3,2.3c1.2,0,1.8-0.9,1.8-0.9l1,1.3C275.5,60.6,274.4,61.9,272.6,61.9"
				/>
			<path class="st1" d="M311.9,61.9c-2.2,0-3.9-1.8-3.9-3.9c0-2.1,1.8-3.9,3.9-3.9c1.8,0,2.8,1.2,2.8,1.2l-1,1.3
				c0,0-0.6-0.9-1.8-0.9c-1.3,0-2.3,1-2.3,2.3c0,1.2,1,2.3,2.3,2.3c1.2,0,1.8-0.9,1.8-0.9l1,1.3C314.7,60.6,313.7,61.9,311.9,61.9"
				/>
			<path class="st1" d="M303.1,54c-2.3,0-3.6,1.9-3.6,3.9c0,2.3,1.6,3.9,3.9,3.9c2.3,0,3.2-1.7,3.2-1.7l-1.2-0.9c0,0-0.6,1.1-2,1.1
				c-1.2,0-2.1-0.8-2.2-1.9h5.5c0,0,0-0.4,0-0.5C306.7,56.3,305.9,54,303.1,54 M301.2,57.2c0.1-1,0.9-1.6,1.9-1.6s1.8,0.6,1.9,1.6
				H301.2z"/>
		</g>
	</g>
</g>
<g>
	<g>
		<path class="st0" d="M28,119.5l0.8,0.3c-0.2,0.9-0.5,1.5-1,1.9s-1,0.6-1.7,0.6c-0.6,0-1.1-0.1-1.5-0.4s-0.8-0.7-1-1.4
			s-0.4-1.4-0.4-2.2c0-0.8,0.1-1.6,0.4-2.1s0.6-1,1.1-1.3c0.5-0.3,1-0.4,1.5-0.4c0.6,0,1.1,0.2,1.6,0.6c0.4,0.4,0.7,0.9,0.9,1.7
			l-0.8,0.2c-0.3-1.1-0.8-1.6-1.7-1.6c-0.4,0-0.8,0.1-1.1,0.3c-0.3,0.2-0.6,0.6-0.7,1c-0.2,0.5-0.3,1-0.3,1.7c0,1.1,0.2,1.8,0.6,2.4
			s0.9,0.8,1.5,0.8c0.5,0,0.8-0.2,1.2-0.5C27.7,120.6,27.9,120.2,28,119.5z"/>
		<path class="st0" d="M32.5,120.4l0.8,0.1c-0.1,0.6-0.4,1-0.7,1.3s-0.8,0.5-1.3,0.5c-0.6,0-1.2-0.2-1.6-0.7s-0.6-1.2-0.6-2.1
			c0-1,0.2-1.7,0.6-2.2c0.4-0.5,0.9-0.8,1.5-0.8s1.1,0.2,1.5,0.7s0.6,1.2,0.6,2.2v0.3h-3.4c0,0.6,0.2,1.1,0.4,1.4
			c0.3,0.3,0.6,0.5,0.9,0.5C31.8,121.5,32.2,121.2,32.5,120.4z M29.9,118.9h2.5c0-0.5-0.1-0.8-0.3-1.1c-0.2-0.3-0.6-0.5-0.9-0.5
			c-0.3,0-0.6,0.1-0.9,0.4C30.1,118,29.9,118.4,29.9,118.9z"/>
		<path class="st0" d="M33.8,122.2v-5.6h0.7v0.8c0.2-0.4,0.3-0.7,0.5-0.8c0.1-0.1,0.3-0.2,0.5-0.2c0.3,0,0.5,0.1,0.8,0.3l-0.3,0.9
			c-0.2-0.1-0.4-0.2-0.6-0.2c-0.2,0-0.3,0.1-0.5,0.2s-0.2,0.3-0.3,0.5c-0.1,0.4-0.1,0.7-0.1,1.1v2.9L33.8,122.2L33.8,122.2z"/>
		<path class="st0" d="M38,121.3l0.1,0.8c-0.2,0.1-0.4,0.1-0.6,0.1c-0.3,0-0.5-0.1-0.7-0.2s-0.3-0.3-0.3-0.4
			c-0.1-0.2-0.1-0.6-0.1-1.1v-3.2h-0.6v-0.7h0.6v-1.4l0.8-0.6v1.9H38v0.7h-0.8v3.3c0,0.3,0,0.5,0.1,0.6s0.2,0.2,0.4,0.2
			C37.7,121.4,37.8,121.4,38,121.3z"/>
		<path class="st0" d="M38.2,115.6v-1.1H39v1.1H38.2z M38.2,122.2v-5.6H39v5.6H38.2z"/>
		<path class="st0" d="M39.9,122.2v-4.8h-0.7v-0.8h0.7V116c0-0.4,0-0.8,0.1-1s0.2-0.4,0.4-0.5s0.4-0.2,0.7-0.2c0.2,0,0.5,0,0.7,0.1
			l-0.1,0.8c-0.2,0-0.3-0.1-0.5-0.1s-0.4,0.1-0.5,0.2s-0.1,0.4-0.1,0.7v0.5h0.9v0.7h-0.8v4.8h-0.8V122.2z"/>
		<path class="st0" d="M41.7,115.6v-1.1h0.8v1.1H41.7z M41.7,122.2v-5.6h0.8v5.6H41.7z"/>
		<path class="st0" d="M46.2,120.2l0.8,0.1c-0.1,0.7-0.3,1.2-0.7,1.5s-0.8,0.5-1.3,0.5c-0.6,0-1.1-0.2-1.5-0.7s-0.6-1.2-0.6-2.2
			s0.2-1.7,0.6-2.2c0.4-0.5,0.9-0.7,1.5-0.7c0.5,0,0.9,0.1,1.2,0.4s0.5,0.7,0.6,1.3l-0.8,0.1c-0.1-0.4-0.2-0.7-0.4-0.8
			c-0.2-0.2-0.4-0.3-0.7-0.3c-0.4,0-0.7,0.2-0.9,0.5s-0.4,0.9-0.4,1.6c0,0.8,0.1,1.3,0.4,1.6c0.2,0.3,0.5,0.5,0.9,0.5
			c0.3,0,0.5-0.1,0.8-0.3S46.1,120.6,46.2,120.2z"/>
		<path class="st0" d="M50.1,121.5c-0.3,0.3-0.5,0.5-0.8,0.6s-0.6,0.2-0.9,0.2c-0.5,0-0.9-0.1-1.1-0.4c-0.3-0.3-0.4-0.7-0.4-1.2
			c0-0.3,0.1-0.6,0.2-0.9s0.3-0.4,0.5-0.6c0.2-0.1,0.6-0.2,1-0.3c0.6-0.1,1.1-0.2,1.4-0.3v-0.2c0-0.4-0.1-0.6-0.2-0.8
			c-0.2-0.2-0.5-0.3-0.9-0.3s-0.6,0.1-0.8,0.2s-0.3,0.4-0.4,0.8l-0.8-0.1c0.1-0.6,0.3-1,0.7-1.3c0.3-0.3,0.8-0.4,1.4-0.4
			c0.5,0,0.9,0.1,1.1,0.3c0.3,0.2,0.4,0.4,0.5,0.7s0.1,0.7,0.1,1.2v1.3c0,0.9,0,1.4,0.1,1.7c0,0.2,0.1,0.5,0.2,0.7h-0.8
			C50.2,122,50.1,121.8,50.1,121.5z M50.1,119.4c-0.3,0.1-0.7,0.3-1.3,0.4c-0.3,0.1-0.6,0.1-0.7,0.2c-0.1,0.1-0.2,0.2-0.3,0.3
			c-0.1,0.1-0.1,0.3-0.1,0.5c0,0.3,0.1,0.5,0.2,0.6s0.4,0.2,0.7,0.2s0.5-0.1,0.8-0.2c0.2-0.1,0.4-0.3,0.5-0.6c0.1-0.2,0.2-0.6,0.2-1
			C50.1,119.8,50.1,119.4,50.1,119.4z"/>
		<path class="st0" d="M54.5,122.2v-0.7c-0.1,0.3-0.3,0.5-0.5,0.6s-0.5,0.2-0.7,0.2c-0.5,0-1-0.3-1.4-0.8s-0.6-1.2-0.6-2.1
			c0-0.6,0.1-1.2,0.3-1.6s0.4-0.8,0.7-1s0.6-0.3,1-0.3c0.3,0,0.5,0.1,0.7,0.2s0.4,0.3,0.5,0.6v-2.8h0.8v7.7L54.5,122.2L54.5,122.2z
			 M52.1,119.4c0,0.7,0.1,1.3,0.4,1.6s0.5,0.5,0.9,0.5c0.3,0,0.6-0.2,0.9-0.5c0.2-0.3,0.4-0.8,0.4-1.5c0-0.8-0.1-1.3-0.4-1.7
			c-0.2-0.4-0.5-0.5-0.9-0.5c-0.3,0-0.6,0.2-0.8,0.5C52.2,118.1,52.1,118.7,52.1,119.4z"/>
		<path class="st0" d="M55.7,119.4c0-1,0.2-1.7,0.6-2.2c0.4-0.5,0.9-0.7,1.5-0.7s1.1,0.2,1.5,0.7s0.6,1.2,0.6,2.1
			c0,1-0.2,1.7-0.6,2.2s-0.9,0.7-1.5,0.7s-1.1-0.2-1.5-0.7C55.9,121.1,55.7,120.4,55.7,119.4z M56.5,119.4c0,0.7,0.1,1.3,0.4,1.6
			c0.3,0.4,0.6,0.5,1,0.5s0.7-0.2,0.9-0.5c0.3-0.4,0.4-0.9,0.4-1.6s-0.1-1.3-0.4-1.6c-0.3-0.4-0.6-0.5-1-0.5s-0.7,0.2-0.9,0.5
			S56.5,118.7,56.5,119.4z"/>
		<path class="st0" d="M62.5,122.2v-7.7h0.9l3.3,6v-6h0.8v7.7h-0.9l-3.3-6v6H62.5z"/>
		<path class="st0" d="M68,119.4c0-1,0.2-1.7,0.6-2.2s0.9-0.7,1.5-0.7s1.1,0.2,1.5,0.7s0.6,1.2,0.6,2.1c0,1-0.2,1.7-0.6,2.2
			s-0.9,0.7-1.5,0.7s-1.1-0.2-1.5-0.7C68.2,121.1,68,120.4,68,119.4z M68.8,119.4c0,0.7,0.1,1.3,0.4,1.6c0.3,0.4,0.6,0.5,1,0.5
			s0.7-0.2,0.9-0.5c0.3-0.4,0.4-0.9,0.4-1.6s-0.1-1.3-0.4-1.6c-0.3-0.4-0.6-0.5-1-0.5s-0.7,0.2-0.9,0.5S68.8,118.7,68.8,119.4z"/>
		<path class="st0" d="M73,122.2v-1.1h0.9v1.1H73z"/>
	</g>
</g>
<g>
	<g>
		<path class="st0" d="M20.1,130l0.8-0.1c0,0.4,0.1,0.8,0.3,1c0.1,0.2,0.4,0.4,0.6,0.6c0.3,0.1,0.6,0.2,0.9,0.2
			c0.5,0,0.9-0.1,1.2-0.4s0.4-0.6,0.4-0.9c0-0.2,0-0.4-0.1-0.6c-0.1-0.2-0.2-0.3-0.5-0.4c-0.2-0.1-0.6-0.3-1.3-0.5
			c-0.6-0.2-1-0.4-1.3-0.5c-0.3-0.2-0.4-0.4-0.6-0.7s-0.2-0.6-0.2-0.9c0-0.6,0.2-1.1,0.6-1.5s0.9-0.6,1.6-0.6c0.5,0,0.9,0.1,1.2,0.3
			s0.6,0.5,0.8,0.8c0.2,0.3,0.3,0.8,0.3,1.2l-0.8,0.1c0-0.5-0.2-0.9-0.4-1.1s-0.6-0.4-1.1-0.4s-0.8,0.1-1.1,0.3
			c-0.2,0.2-0.4,0.5-0.4,0.8s0.1,0.6,0.3,0.7c0.2,0.2,0.6,0.3,1.2,0.5c0.6,0.2,1.1,0.3,1.3,0.4c0.4,0.2,0.7,0.5,0.9,0.8
			s0.3,0.7,0.3,1.1c0,0.4-0.1,0.8-0.3,1.2s-0.5,0.6-0.8,0.8c-0.4,0.2-0.8,0.3-1.3,0.3c-0.8,0-1.4-0.2-1.9-0.7
			C20.3,131.5,20.1,130.8,20.1,130z"/>
		<path class="st0" d="M25.1,132.5l2.4-7.7h0.9l2.6,7.7h-1l-0.7-2.3h-2.7l-0.7,2.3H25.1z M26.9,129.4H29l-0.7-2.1
			c-0.2-0.7-0.4-1.2-0.4-1.6c-0.1,0.5-0.2,1-0.3,1.5L26.9,129.4z"/>
		<path class="st0" d="M30.8,130.2v-0.9h2.4v0.9H30.8z"/>
		<path class="st0" d="M38.1,129.8l0.8,0.3c-0.2,0.9-0.5,1.5-1,1.9s-1,0.6-1.7,0.6c-0.6,0-1.1-0.1-1.5-0.4s-0.8-0.7-1-1.4
			s-0.4-1.4-0.4-2.2s0.1-1.6,0.4-2.1s0.6-1,1.1-1.3s1-0.4,1.5-0.4c0.6,0,1.1,0.2,1.6,0.6c0.4,0.4,0.7,0.9,0.9,1.7l-0.8,0.2
			c-0.3-1.1-0.8-1.6-1.7-1.6c-0.4,0-0.8,0.1-1.1,0.3c-0.3,0.2-0.6,0.6-0.7,1c-0.2,0.5-0.3,1-0.3,1.7c0,1.1,0.2,1.8,0.6,2.4
			s0.9,0.8,1.5,0.8c0.5,0,0.8-0.2,1.2-0.5C37.8,131,38,130.5,38.1,129.8z"/>
		<path class="st0" d="M39.6,132.5v-7.7h4.6v0.9h-3.7v2.3H44v0.9h-3.5v2.6h3.9v0.9h-4.8V132.5z"/>
		<path class="st0" d="M44.9,132.5v-7.7h2.8c0.6,0,1,0.1,1.3,0.2s0.5,0.4,0.7,0.7c0.2,0.3,0.3,0.7,0.3,1.2c0,0.6-0.2,1-0.5,1.4
			s-0.7,0.6-1.3,0.7c0.2,0.1,0.4,0.3,0.5,0.4c0.2,0.3,0.5,0.6,0.7,1l1.1,2.1h-1l-0.8-1.6c-0.3-0.6-0.6-1-0.7-1.3
			c-0.2-0.2-0.3-0.4-0.5-0.4c-0.2-0.1-0.4-0.1-0.7-0.1h-1v3.4L44.9,132.5L44.9,132.5z M45.8,128.2h1.8c0.4,0,0.7,0,0.9-0.1
			s0.4-0.2,0.5-0.4s0.2-0.4,0.2-0.7c0-0.4-0.1-0.7-0.3-0.9s-0.6-0.3-1-0.3h-2v2.4L45.8,128.2L45.8,128.2z"/>
		<path class="st0" d="M50.6,125.8v-0.9h4.1v0.7c-0.6,0.8-1.1,1.8-1.6,3.1c-0.5,1.3-0.7,2.5-0.8,3.8h-0.8c0-0.6,0.1-1.4,0.3-2.2
			c0.2-0.9,0.5-1.7,0.8-2.4c0.3-0.8,0.7-1.4,1.1-2L50.6,125.8L50.6,125.8z"/>
		<path class="st0" d="M57.4,132.5v-1.8h-2.7v-0.9l2.9-5h0.6v5h0.9v0.9h-0.9v1.8H57.4z M57.4,129.8v-3.5l-2,3.5H57.4z"/>
		<path class="st0" d="M59.4,128.7c0-1.3,0.2-2.3,0.5-2.9c0.3-0.7,0.9-1,1.5-1s1.1,0.3,1.4,0.8c0.4,0.7,0.6,1.7,0.6,3.1
			c0,1.3-0.2,2.3-0.5,2.9s-0.9,1-1.5,1s-1.1-0.3-1.5-0.9C59.6,131.2,59.4,130.2,59.4,128.7z M60.2,128.7c0,1.2,0.1,2.1,0.4,2.5
			c0.2,0.4,0.5,0.6,0.9,0.6s0.6-0.2,0.9-0.6c0.2-0.4,0.4-1.3,0.4-2.5c0-1.3-0.1-2.1-0.4-2.5c-0.2-0.4-0.6-0.6-0.9-0.6
			c-0.4,0-0.6,0.2-0.9,0.6S60.2,127.5,60.2,128.7z"/>
		<path class="st0" d="M67.8,126.7l-0.8,0.1c-0.1-0.4-0.2-0.7-0.3-0.8c-0.2-0.2-0.5-0.4-0.7-0.4c-0.5,0-0.8,0.3-1.1,0.8
			c-0.2,0.5-0.4,1.2-0.4,2.1c0.2-0.3,0.4-0.6,0.7-0.8c0.3-0.2,0.6-0.3,0.9-0.3c0.5,0,0.9,0.2,1.3,0.7s0.6,1.1,0.6,1.8
			c0,0.5-0.1,1-0.3,1.4s-0.4,0.7-0.7,0.9c-0.3,0.2-0.6,0.3-1,0.3c-0.6,0-1.2-0.3-1.6-0.9c-0.4-0.6-0.6-1.5-0.6-2.9
			c0-1.5,0.2-2.5,0.6-3.2c0.4-0.6,1-0.9,1.6-0.9c0.5,0,0.9,0.2,1.2,0.5C67.6,125.6,67.8,126.1,67.8,126.7z M64.7,130
			c0,0.6,0.1,1,0.4,1.3s0.6,0.5,0.9,0.5s0.6-0.2,0.8-0.5c0.2-0.3,0.4-0.8,0.4-1.3s-0.1-1-0.4-1.3c-0.2-0.3-0.5-0.5-0.9-0.5
			c-0.3,0-0.6,0.1-0.9,0.4S64.7,129.5,64.7,130z"/>
		<path class="st0" d="M68.4,130.7l0.7-0.1c0.1,0.8,0.5,1.2,1,1.2c0.3,0,0.5-0.1,0.7-0.3s0.4-0.5,0.5-0.9s0.2-1,0.2-1.6v-0.2
			c-0.2,0.3-0.4,0.6-0.7,0.7c-0.3,0.2-0.6,0.3-0.8,0.3c-0.5,0-1-0.2-1.3-0.7c-0.4-0.4-0.6-1.1-0.6-1.8c0-0.8,0.2-1.4,0.6-1.9
			s0.9-0.7,1.4-0.7c0.4,0,0.8,0.1,1.1,0.4c0.3,0.3,0.6,0.6,0.8,1.1c0.2,0.5,0.3,1.2,0.3,2.2c0,1.1-0.1,1.9-0.3,2.5
			c-0.2,0.6-0.5,1-0.8,1.3s-0.7,0.4-1.1,0.4c-0.5,0-0.9-0.2-1.2-0.5C68.6,131.8,68.4,131.4,68.4,130.7z M71.5,127.3
			c0-0.5-0.1-1-0.4-1.3c-0.2-0.3-0.5-0.5-0.8-0.5s-0.6,0.2-0.9,0.5s-0.4,0.8-0.4,1.3s0.1,0.9,0.4,1.2c0.2,0.3,0.5,0.4,0.9,0.4
			c0.3,0,0.6-0.2,0.9-0.5C71.4,128.3,71.5,127.9,71.5,127.3z"/>
		<path class="st0" d="M72.7,130.5l0.8-0.1c0.2,1,0.6,1.5,1.2,1.5c0.4,0,0.7-0.1,0.9-0.4c0.3-0.3,0.4-0.7,0.4-1.2
			c0-0.4-0.1-0.8-0.4-1.1c-0.2-0.3-0.5-0.4-0.9-0.4c-0.1,0-0.3,0-0.5,0.1l0.1-0.8h0.1c0.4,0,0.7-0.1,0.9-0.4
			c0.2-0.2,0.4-0.5,0.4-0.9s-0.1-0.6-0.3-0.9c-0.2-0.2-0.4-0.3-0.7-0.3c-0.3,0-0.5,0.1-0.8,0.3c-0.2,0.2-0.3,0.6-0.4,1l-0.8-0.2
			c0.1-0.7,0.3-1.2,0.7-1.5s0.8-0.5,1.2-0.5c0.5,0,0.9,0.2,1.3,0.6s0.5,0.9,0.5,1.4c0,0.3-0.1,0.7-0.2,0.9c-0.2,0.3-0.4,0.5-0.6,0.6
			c0.3,0.1,0.5,0.2,0.6,0.3c0.2,0.2,0.3,0.4,0.4,0.6c0.1,0.3,0.2,0.6,0.2,0.9c0,0.7-0.2,1.3-0.6,1.7s-0.9,0.7-1.5,0.7
			c-0.5,0-1-0.2-1.4-0.6S72.8,131.1,72.7,130.5z"/>
	</g>
</g>
<g>
	<g>
		<path class="st0" d="M108.8,119.5l0.8,0.3c-0.2,0.9-0.5,1.5-1,1.9s-1,0.6-1.7,0.6c-0.6,0-1.1-0.1-1.5-0.4s-0.8-0.7-1-1.4
			s-0.4-1.4-0.4-2.2c0-0.8,0.1-1.6,0.4-2.1s0.6-1,1.1-1.3s1-0.4,1.5-0.4c0.6,0,1.1,0.2,1.6,0.6c0.4,0.4,0.7,0.9,0.9,1.7l-0.8,0.2
			c-0.3-1.1-0.8-1.6-1.7-1.6c-0.4,0-0.8,0.1-1.1,0.3c-0.3,0.2-0.6,0.6-0.7,1c-0.2,0.5-0.3,1-0.3,1.7c0,1.1,0.2,1.8,0.6,2.4
			s0.9,0.8,1.5,0.8c0.5,0,0.8-0.2,1.2-0.5C108.5,120.6,108.7,120.2,108.8,119.5z"/>
		<path class="st0" d="M113.2,120.4l0.8,0.1c-0.1,0.6-0.4,1-0.7,1.3c-0.3,0.3-0.8,0.5-1.3,0.5c-0.6,0-1.2-0.2-1.6-0.7
			s-0.6-1.2-0.6-2.1c0-1,0.2-1.7,0.6-2.2s0.9-0.8,1.5-0.8s1.1,0.2,1.5,0.7s0.6,1.2,0.6,2.2v0.3h-3.4c0,0.6,0.2,1.1,0.4,1.4
			c0.3,0.3,0.6,0.5,0.9,0.5C112.6,121.5,113,121.2,113.2,120.4z M110.7,118.9h2.5c0-0.5-0.1-0.8-0.3-1.1c-0.2-0.3-0.6-0.5-0.9-0.5
			s-0.6,0.1-0.9,0.4C110.8,118,110.7,118.4,110.7,118.9z"/>
		<path class="st0" d="M114.5,122.2v-5.6h0.7v0.8c0.2-0.4,0.3-0.7,0.5-0.8c0.1-0.1,0.3-0.2,0.5-0.2c0.3,0,0.5,0.1,0.8,0.3l-0.3,0.9
			c-0.2-0.1-0.4-0.2-0.6-0.2s-0.3,0.1-0.5,0.2s-0.2,0.3-0.3,0.5c-0.1,0.4-0.1,0.7-0.1,1.1v2.9L114.5,122.2L114.5,122.2z"/>
		<path class="st0" d="M118.7,121.3l0.1,0.8c-0.2,0.1-0.4,0.1-0.6,0.1c-0.3,0-0.5-0.1-0.7-0.2s-0.3-0.3-0.3-0.4
			c-0.1-0.2-0.1-0.6-0.1-1.1v-3.2h-0.6v-0.7h0.6v-1.4l0.8-0.6v1.9h0.8v0.7h-0.8v3.3c0,0.3,0,0.5,0.1,0.6s0.2,0.2,0.4,0.2
			C118.5,121.4,118.6,121.4,118.7,121.3z"/>
		<path class="st0" d="M119,115.6v-1.1h0.8v1.1H119z M119,122.2v-5.6h0.8v5.6H119z"/>
		<path class="st0" d="M120.7,122.2v-4.8H120v-0.8h0.7V116c0-0.4,0-0.8,0.1-1s0.2-0.4,0.4-0.5s0.4-0.2,0.7-0.2c0.2,0,0.5,0,0.7,0.1
			l-0.1,0.8c-0.2,0-0.3-0.1-0.5-0.1s-0.4,0.1-0.5,0.2s-0.1,0.4-0.1,0.7v0.5h0.9v0.7h-0.9v4.8h-0.7V122.2z"/>
		<path class="st0" d="M122.5,115.6v-1.1h0.8v1.1H122.5z M122.5,122.2v-5.6h0.8v5.6H122.5z"/>
		<path class="st0" d="M127,120.2l0.8,0.1c-0.1,0.7-0.3,1.2-0.7,1.5s-0.8,0.5-1.3,0.5c-0.6,0-1.1-0.2-1.5-0.7s-0.6-1.2-0.6-2.2
			s0.2-1.7,0.6-2.2c0.4-0.5,0.9-0.7,1.5-0.7c0.5,0,0.9,0.1,1.2,0.4s0.5,0.7,0.6,1.3l-0.8,0.1c-0.1-0.4-0.2-0.7-0.4-0.8
			c-0.2-0.2-0.4-0.3-0.7-0.3c-0.4,0-0.7,0.2-0.9,0.5s-0.4,0.9-0.4,1.6c0,0.8,0.1,1.3,0.4,1.6c0.2,0.3,0.5,0.5,0.9,0.5
			c0.3,0,0.5-0.1,0.8-0.3S126.9,120.6,127,120.2z"/>
		<path class="st0" d="M130.9,121.5c-0.3,0.3-0.5,0.5-0.8,0.6s-0.6,0.2-0.9,0.2c-0.5,0-0.9-0.1-1.1-0.4c-0.3-0.3-0.4-0.7-0.4-1.2
			c0-0.3,0.1-0.6,0.2-0.9s0.3-0.4,0.5-0.6c0.2-0.1,0.6-0.2,1-0.3c0.6-0.1,1.1-0.2,1.4-0.3v-0.2c0-0.4-0.1-0.6-0.2-0.8
			c-0.2-0.2-0.5-0.3-0.9-0.3s-0.6,0.1-0.8,0.2s-0.3,0.4-0.4,0.8l-0.8-0.1c0.1-0.6,0.3-1,0.7-1.3c0.3-0.3,0.8-0.4,1.4-0.4
			c0.5,0,0.9,0.1,1.1,0.3c0.3,0.2,0.4,0.4,0.5,0.7s0.1,0.7,0.1,1.2v1.3c0,0.9,0,1.4,0.1,1.7c0,0.2,0.1,0.5,0.2,0.7H131
			C131,122,130.9,121.8,130.9,121.5z M130.8,119.4c-0.3,0.1-0.7,0.3-1.3,0.4c-0.3,0.1-0.6,0.1-0.7,0.2c-0.1,0.1-0.2,0.2-0.3,0.3
			c-0.1,0.1-0.1,0.3-0.1,0.5c0,0.3,0.1,0.5,0.2,0.6s0.4,0.2,0.7,0.2s0.5-0.1,0.8-0.2c0.2-0.1,0.4-0.3,0.5-0.6c0.1-0.2,0.2-0.6,0.2-1
			L130.8,119.4L130.8,119.4z"/>
		<path class="st0" d="M135.3,122.2v-0.7c-0.1,0.3-0.3,0.5-0.5,0.6s-0.5,0.2-0.7,0.2c-0.5,0-1-0.3-1.4-0.8s-0.6-1.2-0.6-2.1
			c0-0.6,0.1-1.2,0.3-1.6s0.4-0.8,0.7-1s0.6-0.3,1-0.3c0.3,0,0.5,0.1,0.7,0.2s0.4,0.3,0.5,0.6v-2.8h0.8v7.7L135.3,122.2L135.3,122.2
			z M132.9,119.4c0,0.7,0.1,1.3,0.4,1.6s0.5,0.5,0.9,0.5c0.3,0,0.6-0.2,0.9-0.5c0.2-0.3,0.4-0.8,0.4-1.5c0-0.8-0.1-1.3-0.4-1.7
			c-0.2-0.4-0.5-0.5-0.9-0.5c-0.3,0-0.6,0.2-0.8,0.5C133,118.1,132.9,118.7,132.9,119.4z"/>
		<path class="st0" d="M136.5,119.4c0-1,0.2-1.7,0.6-2.2c0.4-0.5,0.9-0.7,1.5-0.7s1.1,0.2,1.5,0.7s0.6,1.2,0.6,2.1
			c0,1-0.2,1.7-0.6,2.2c-0.4,0.5-0.9,0.7-1.5,0.7s-1.1-0.2-1.5-0.7C136.7,121.1,136.5,120.4,136.5,119.4z M137.3,119.4
			c0,0.7,0.1,1.3,0.4,1.6c0.3,0.4,0.6,0.5,1,0.5s0.7-0.2,0.9-0.5c0.3-0.4,0.4-0.9,0.4-1.6s-0.1-1.3-0.4-1.6c-0.3-0.4-0.6-0.5-1-0.5
			s-0.7,0.2-0.9,0.5S137.3,118.7,137.3,119.4z"/>
		<path class="st0" d="M143.3,122.2v-7.7h0.9l3.3,6v-6h0.8v7.7h-0.9l-3.3-6v6H143.3z"/>
		<path class="st0" d="M148.8,119.4c0-1,0.2-1.7,0.6-2.2c0.4-0.5,0.9-0.7,1.5-0.7s1.1,0.2,1.5,0.7s0.6,1.2,0.6,2.1
			c0,1-0.2,1.7-0.6,2.2c-0.4,0.5-0.9,0.7-1.5,0.7s-1.1-0.2-1.5-0.7C149,121.1,148.8,120.4,148.8,119.4z M149.6,119.4
			c0,0.7,0.1,1.3,0.4,1.6c0.3,0.4,0.6,0.5,1,0.5s0.7-0.2,0.9-0.5c0.3-0.4,0.4-0.9,0.4-1.6s-0.1-1.3-0.4-1.6c-0.3-0.4-0.6-0.5-1-0.5
			s-0.7,0.2-0.9,0.5S149.6,118.7,149.6,119.4z"/>
		<path class="st0" d="M153.8,122.2v-1.1h0.9v1.1H153.8z"/>
	</g>
</g>
<g>
	<g>
		<path class="st0" d="M104.9,129.5v-0.9h2.7v2.9c-0.4,0.4-0.8,0.7-1.3,0.9c-0.4,0.2-0.9,0.3-1.3,0.3c-0.6,0-1.2-0.2-1.6-0.5
			c-0.5-0.3-0.9-0.8-1.1-1.3c-0.3-0.6-0.4-1.3-0.4-2.1s0.1-1.6,0.4-2.2s0.7-1.1,1.1-1.4c0.5-0.3,1-0.4,1.6-0.4
			c0.5,0,0.9,0.1,1.2,0.3c0.3,0.2,0.6,0.4,0.9,0.7c0.2,0.3,0.4,0.7,0.5,1.3l-0.8,0.3c-0.1-0.4-0.2-0.8-0.4-1s-0.4-0.4-0.6-0.5
			c-0.3-0.1-0.5-0.2-0.8-0.2c-0.5,0-0.9,0.1-1.2,0.3c-0.3,0.2-0.6,0.6-0.8,1c-0.2,0.5-0.3,1-0.3,1.7c0,1,0.2,1.8,0.6,2.3
			s1,0.8,1.7,0.8c0.3,0,0.7-0.1,1-0.2c0.3-0.2,0.6-0.3,0.8-0.6v-1.4h-1.9L104.9,129.5L104.9,129.5z"/>
		<path class="st0" d="M108.3,132.5v-7.7h4.6v0.9h-3.7v2.3h3.5v0.9h-3.5v2.6h3.9v0.9h-4.8V132.5z"/>
		<path class="st0" d="M113.3,130.2v-0.9h2.4v0.9H113.3z"/>
		<path class="st0" d="M120.7,129.8l0.8,0.3c-0.2,0.9-0.5,1.5-1,1.9s-1,0.6-1.7,0.6c-0.6,0-1.1-0.1-1.5-0.4s-0.8-0.7-1-1.4
			s-0.4-1.4-0.4-2.2s0.1-1.6,0.4-2.1s0.6-1,1.1-1.3s1-0.4,1.5-0.4c0.6,0,1.1,0.2,1.6,0.6c0.4,0.4,0.7,0.9,0.9,1.7l-0.8,0.2
			c-0.3-1.1-0.8-1.6-1.7-1.6c-0.4,0-0.8,0.1-1.1,0.3c-0.3,0.2-0.6,0.6-0.7,1c-0.2,0.5-0.3,1-0.3,1.7c0,1.1,0.2,1.8,0.6,2.4
			s0.9,0.8,1.5,0.8c0.5,0,0.8-0.2,1.2-0.5C120.4,131,120.6,130.5,120.7,129.8z"/>
		<path class="st0" d="M122.1,132.5v-7.7h4.6v0.9H123v2.3h3.5v0.9H123v2.6h3.9v0.9h-4.8V132.5z"/>
		<path class="st0" d="M127.5,132.5v-7.7h2.8c0.6,0,1,0.1,1.3,0.2s0.5,0.4,0.7,0.7c0.2,0.3,0.3,0.7,0.3,1.2c0,0.6-0.2,1-0.5,1.4
			s-0.7,0.6-1.3,0.7c0.2,0.1,0.4,0.3,0.5,0.4c0.2,0.3,0.5,0.6,0.7,1l1.1,2.1h-1l-0.8-1.6c-0.3-0.6-0.6-1-0.7-1.3
			c-0.2-0.2-0.3-0.4-0.5-0.4c-0.2-0.1-0.4-0.1-0.7-0.1h-1v3.4L127.5,132.5L127.5,132.5z M128.3,128.2h1.8c0.4,0,0.7,0,0.9-0.1
			s0.4-0.2,0.5-0.4s0.2-0.4,0.2-0.7c0-0.4-0.1-0.7-0.3-0.9s-0.6-0.3-1-0.3h-2L128.3,128.2L128.3,128.2z"/>
		<path class="st0" d="M133.1,130.5l0.8-0.1c0.1,0.5,0.2,0.9,0.4,1.1c0.2,0.2,0.5,0.4,0.8,0.4c0.4,0,0.7-0.2,0.9-0.5
			s0.4-0.8,0.4-1.4c0-0.5-0.1-1-0.4-1.3c-0.3-0.3-0.6-0.5-1-0.5c-0.2,0-0.5,0.1-0.7,0.2c-0.2,0.1-0.4,0.3-0.5,0.5l-0.7-0.1l0.6-4
			h3.1v0.9h-2.5l-0.3,2.1c0.4-0.3,0.8-0.5,1.2-0.5c0.5,0,1,0.2,1.4,0.7s0.6,1.1,0.6,1.8c0,0.8-0.2,1.4-0.6,1.9
			c-0.4,0.5-0.9,0.8-1.6,0.8c-0.5,0-1-0.2-1.4-0.6C133.4,131.7,133.1,131.2,133.1,130.5z"/>
		<path class="st0" d="M137.5,130.5l0.8-0.1c0.1,0.5,0.2,0.9,0.4,1.1c0.2,0.2,0.5,0.4,0.8,0.4c0.4,0,0.7-0.2,0.9-0.5
			s0.4-0.8,0.4-1.4c0-0.5-0.1-1-0.4-1.3c-0.3-0.3-0.6-0.5-1-0.5c-0.2,0-0.5,0.1-0.7,0.2c-0.2,0.1-0.4,0.3-0.5,0.5l-0.7-0.1l0.6-4
			h3.1v0.9h-2.5l-0.3,2.1c0.4-0.3,0.8-0.5,1.2-0.5c0.5,0,1,0.2,1.4,0.7s0.6,1.1,0.6,1.8c0,0.8-0.2,1.4-0.6,1.9
			c-0.4,0.5-0.9,0.8-1.6,0.8c-0.5,0-1-0.2-1.4-0.6C137.8,131.7,137.6,131.2,137.5,130.5z"/>
		<path class="st0" d="M142,125.8v-0.9h4.1v0.7c-0.6,0.8-1.1,1.8-1.6,3.1c-0.5,1.3-0.7,2.5-0.8,3.8h-0.8c0-0.6,0.1-1.4,0.3-2.2
			c0.2-0.9,0.5-1.7,0.8-2.4c0.3-0.8,0.7-1.4,1.1-2L142,125.8L142,125.8z"/>
		<path class="st0" d="M149.3,132.5h-0.8v-6c-0.2,0.2-0.4,0.4-0.7,0.6s-0.6,0.4-0.8,0.5v-0.9c0.4-0.2,0.8-0.5,1.1-0.9s0.6-0.7,0.7-1
			h0.5V132.5z"/>
		<path class="st0" d="M152,128.3c-0.3-0.1-0.5-0.3-0.7-0.6c-0.2-0.3-0.2-0.6-0.2-1c0-0.6,0.2-1.1,0.5-1.4s0.8-0.5,1.3-0.5
			s1,0.2,1.3,0.6s0.5,0.9,0.5,1.4c0,0.4-0.1,0.7-0.2,0.9s-0.4,0.5-0.7,0.6c0.4,0.2,0.7,0.4,0.9,0.7s0.3,0.8,0.3,1.2
			c0,0.7-0.2,1.2-0.6,1.7c-0.4,0.4-0.9,0.6-1.5,0.6s-1.1-0.2-1.5-0.6c-0.4-0.4-0.6-1-0.6-1.7c0-0.5,0.1-0.9,0.3-1.3
			C151.4,128.7,151.7,128.5,152,128.3z M151.6,130.3c0,0.5,0.1,0.9,0.4,1.1c0.3,0.3,0.6,0.4,0.9,0.4c0.4,0,0.7-0.1,0.9-0.4
			c0.2-0.3,0.4-0.7,0.4-1.1c0-0.5-0.1-0.9-0.4-1.1c-0.3-0.3-0.6-0.4-0.9-0.4c-0.4,0-0.7,0.1-0.9,0.4
			C151.7,129.5,151.6,129.8,151.6,130.3z M151.9,126.7c0,0.4,0.1,0.7,0.3,0.9s0.4,0.3,0.7,0.3s0.5-0.1,0.7-0.3s0.3-0.5,0.3-0.9
			s-0.1-0.7-0.3-0.9s-0.4-0.3-0.7-0.3s-0.5,0.1-0.7,0.3C152,126.1,151.9,126.4,151.9,126.7z"/>
		<path class="st0" d="M159.3,126.7l-0.8,0.1c-0.1-0.4-0.2-0.7-0.3-0.8c-0.2-0.2-0.5-0.4-0.7-0.4c-0.5,0-0.8,0.3-1.1,0.8
			c-0.2,0.5-0.4,1.2-0.4,2.1c0.2-0.3,0.4-0.6,0.7-0.8s0.6-0.3,0.9-0.3c0.5,0,0.9,0.2,1.3,0.7c0.4,0.5,0.6,1.1,0.6,1.8
			c0,0.5-0.1,1-0.3,1.4s-0.4,0.7-0.7,0.9s-0.6,0.3-1,0.3c-0.6,0-1.2-0.3-1.6-0.9c-0.4-0.6-0.6-1.5-0.6-2.9c0-1.5,0.2-2.5,0.6-3.2
			c0.4-0.6,1-0.9,1.6-0.9c0.5,0,0.9,0.2,1.2,0.5C159,125.6,159.2,126.1,159.3,126.7z M156.1,130c0,0.6,0.1,1,0.4,1.3
			c0.3,0.3,0.6,0.5,0.9,0.5c0.3,0,0.6-0.2,0.8-0.5s0.4-0.8,0.4-1.3s-0.1-1-0.4-1.3c-0.2-0.3-0.5-0.5-0.9-0.5c-0.3,0-0.6,0.1-0.9,0.4
			S156.1,129.5,156.1,130z"/>
	</g>
</g>
<g>
	<g>
		<path class="st0" d="M189.6,119.5l0.8,0.3c-0.2,0.9-0.5,1.5-1,1.9s-1,0.6-1.7,0.6c-0.6,0-1.1-0.1-1.5-0.4s-0.8-0.7-1-1.4
			c-0.3-0.6-0.4-1.4-0.4-2.2c0-0.8,0.1-1.6,0.4-2.1c0.3-0.6,0.6-1,1.1-1.3s1-0.4,1.5-0.4c0.6,0,1.1,0.2,1.6,0.6
			c0.4,0.4,0.7,0.9,0.9,1.7l-0.8,0.2c-0.3-1.1-0.8-1.6-1.7-1.6c-0.4,0-0.8,0.1-1.1,0.3c-0.3,0.2-0.6,0.6-0.7,1
			c-0.2,0.5-0.3,1-0.3,1.7c0,1.1,0.2,1.8,0.6,2.4c0.4,0.5,0.9,0.8,1.5,0.8c0.5,0,0.8-0.2,1.2-0.5S189.4,120.2,189.6,119.5z"/>
		<path class="st0" d="M194,120.4l0.8,0.1c-0.1,0.6-0.4,1-0.7,1.3s-0.8,0.5-1.3,0.5c-0.6,0-1.2-0.2-1.6-0.7s-0.6-1.2-0.6-2.1
			c0-1,0.2-1.7,0.6-2.2c0.4-0.5,0.9-0.8,1.5-0.8s1.1,0.2,1.5,0.7s0.6,1.2,0.6,2.2v0.3h-3.4c0,0.6,0.2,1.1,0.4,1.4
			c0.3,0.3,0.6,0.5,0.9,0.5C193.4,121.5,193.8,121.2,194,120.4z M191.4,118.9h2.5c0-0.5-0.1-0.8-0.3-1.1c-0.2-0.3-0.6-0.5-0.9-0.5
			c-0.3,0-0.6,0.1-0.9,0.4C191.6,118,191.5,118.4,191.4,118.9z"/>
		<path class="st0" d="M195.3,122.2v-5.6h0.7v0.8c0.2-0.4,0.3-0.7,0.5-0.8c0.1-0.1,0.3-0.2,0.5-0.2c0.3,0,0.5,0.1,0.8,0.3l-0.3,0.9
			c-0.2-0.1-0.4-0.2-0.6-0.2c-0.2,0-0.3,0.1-0.5,0.2c-0.1,0.1-0.2,0.3-0.3,0.5c-0.1,0.4-0.1,0.7-0.1,1.1v2.9L195.3,122.2
			L195.3,122.2z"/>
		<path class="st0" d="M199.5,121.3l0.1,0.8c-0.2,0.1-0.4,0.1-0.6,0.1c-0.3,0-0.5-0.1-0.7-0.2s-0.3-0.3-0.3-0.4s-0.1-0.6-0.1-1.1
			v-3.2h-0.6v-0.7h0.6v-1.4l0.8-0.6v1.9h0.8v0.7h-0.8v3.3c0,0.3,0,0.5,0.1,0.6s0.2,0.2,0.4,0.2C199.2,121.4,199.4,121.4,199.5,121.3
			z"/>
		<path class="st0" d="M199.8,115.6v-1.1h0.8v1.1H199.8z M199.8,122.2v-5.6h0.8v5.6H199.8z"/>
		<path class="st0" d="M201.5,122.2v-4.8h-0.7v-0.8h0.7V116c0-0.4,0-0.8,0.1-1s0.2-0.4,0.4-0.5s0.4-0.2,0.7-0.2c0.2,0,0.5,0,0.7,0.1
			l-0.1,0.8c-0.2,0-0.3-0.1-0.5-0.1s-0.4,0.1-0.5,0.2s-0.1,0.4-0.1,0.7v0.5h0.9v0.7h-0.9v4.8h-0.7L201.5,122.2L201.5,122.2z"/>
		<path class="st0" d="M203.2,115.6v-1.1h0.8v1.1H203.2z M203.2,122.2v-5.6h0.8v5.6H203.2z"/>
		<path class="st0" d="M207.7,120.2l0.8,0.1c-0.1,0.7-0.3,1.2-0.7,1.5s-0.8,0.5-1.3,0.5c-0.6,0-1.1-0.2-1.5-0.7s-0.6-1.2-0.6-2.2
			s0.2-1.7,0.6-2.2c0.4-0.5,0.9-0.7,1.5-0.7c0.5,0,0.9,0.1,1.2,0.4s0.5,0.7,0.6,1.3l-0.8,0.1c-0.1-0.4-0.2-0.7-0.4-0.8
			c-0.2-0.2-0.4-0.3-0.7-0.3c-0.4,0-0.7,0.2-0.9,0.5s-0.4,0.9-0.4,1.6c0,0.8,0.1,1.3,0.4,1.6s0.5,0.5,0.9,0.5c0.3,0,0.5-0.1,0.8-0.3
			S207.7,120.6,207.7,120.2z"/>
		<path class="st0" d="M211.7,121.5c-0.3,0.3-0.5,0.5-0.8,0.6s-0.6,0.2-0.9,0.2c-0.5,0-0.9-0.1-1.1-0.4c-0.3-0.3-0.4-0.7-0.4-1.2
			c0-0.3,0.1-0.6,0.2-0.9s0.3-0.4,0.5-0.6s0.6-0.2,1-0.3c0.6-0.1,1.1-0.2,1.4-0.3v-0.2c0-0.4-0.1-0.6-0.2-0.8
			c-0.2-0.2-0.5-0.3-0.9-0.3s-0.6,0.1-0.8,0.2s-0.3,0.4-0.4,0.8l-0.8-0.1c0.1-0.6,0.3-1,0.7-1.3c0.3-0.3,0.8-0.4,1.4-0.4
			c0.5,0,0.9,0.1,1.1,0.3c0.3,0.2,0.4,0.4,0.5,0.7c0.1,0.3,0.1,0.7,0.1,1.2v1.3c0,0.9,0,1.4,0,1.7c0,0.2,0.1,0.5,0.2,0.7h-0.8
			C211.7,122,211.7,121.8,211.7,121.5z M211.6,119.4c-0.3,0.1-0.7,0.3-1.3,0.4c-0.3,0.1-0.6,0.1-0.7,0.2c-0.1,0.1-0.2,0.2-0.3,0.3
			c-0.1,0.1-0.1,0.3-0.1,0.5c0,0.3,0.1,0.5,0.2,0.6c0.2,0.2,0.4,0.2,0.7,0.2s0.5-0.1,0.8-0.2c0.2-0.1,0.4-0.3,0.5-0.6
			c0.1-0.2,0.2-0.6,0.2-1L211.6,119.4L211.6,119.4z"/>
		<path class="st0" d="M216.1,122.2v-0.7c-0.1,0.3-0.3,0.5-0.5,0.6s-0.5,0.2-0.7,0.2c-0.5,0-1-0.3-1.4-0.8s-0.6-1.2-0.6-2.1
			c0-0.6,0.1-1.2,0.3-1.6s0.4-0.8,0.7-1s0.6-0.3,1-0.3c0.3,0,0.5,0.1,0.7,0.2s0.4,0.3,0.5,0.6v-2.8h0.8v7.7L216.1,122.2L216.1,122.2
			z M213.6,119.4c0,0.7,0.1,1.3,0.4,1.6s0.5,0.5,0.9,0.5c0.3,0,0.6-0.2,0.9-0.5c0.2-0.3,0.4-0.8,0.4-1.5c0-0.8-0.1-1.3-0.4-1.7
			s-0.5-0.5-0.9-0.5c-0.3,0-0.6,0.2-0.8,0.5C213.7,118.1,213.6,118.7,213.6,119.4z"/>
		<path class="st0" d="M217.3,119.4c0-1,0.2-1.7,0.6-2.2c0.4-0.5,0.9-0.7,1.5-0.7s1.1,0.2,1.5,0.7s0.6,1.2,0.6,2.1
			c0,1-0.2,1.7-0.6,2.2s-0.9,0.7-1.5,0.7s-1.1-0.2-1.5-0.7S217.3,120.4,217.3,119.4z M218.1,119.4c0,0.7,0.1,1.3,0.4,1.6
			c0.3,0.4,0.6,0.5,1,0.5s0.7-0.2,0.9-0.5c0.3-0.4,0.4-0.9,0.4-1.6s-0.1-1.3-0.4-1.6s-0.6-0.5-1-0.5s-0.7,0.2-0.9,0.5
			S218.1,118.7,218.1,119.4z"/>
		<path class="st0" d="M224.1,122.2v-7.7h0.9l3.3,6v-6h0.8v7.7h-0.9l-3.3-6v6H224.1z"/>
		<path class="st0" d="M229.6,119.4c0-1,0.2-1.7,0.6-2.2c0.4-0.5,0.9-0.7,1.5-0.7s1.1,0.2,1.5,0.7s0.6,1.2,0.6,2.1
			c0,1-0.2,1.7-0.6,2.2c-0.4,0.5-0.9,0.7-1.5,0.7s-1.1-0.2-1.5-0.7C229.8,121.1,229.6,120.4,229.6,119.4z M230.4,119.4
			c0,0.7,0.1,1.3,0.4,1.6c0.3,0.4,0.6,0.5,1,0.5s0.7-0.2,0.9-0.5s0.4-0.9,0.4-1.6s-0.1-1.3-0.4-1.6c-0.3-0.4-0.6-0.5-1-0.5
			s-0.7,0.2-0.9,0.5S230.4,118.7,230.4,119.4z"/>
		<path class="st0" d="M234.6,122.2v-1.1h0.9v1.1H234.6z"/>
	</g>
</g>
<g>
	<g>
		<path class="st0" d="M182.2,130l0.8-0.1c0,0.4,0.1,0.8,0.3,1c0.1,0.2,0.4,0.4,0.6,0.6c0.3,0.1,0.6,0.2,0.9,0.2
			c0.5,0,0.9-0.1,1.2-0.4s0.4-0.6,0.4-0.9c0-0.2,0-0.4-0.1-0.6c-0.1-0.2-0.2-0.3-0.5-0.4c-0.2-0.1-0.6-0.3-1.3-0.5
			c-0.6-0.2-1-0.4-1.3-0.5c-0.3-0.2-0.4-0.4-0.6-0.7c-0.2-0.3-0.2-0.6-0.2-0.9c0-0.6,0.2-1.1,0.6-1.5c0.4-0.4,0.9-0.6,1.6-0.6
			c0.5,0,0.9,0.1,1.2,0.3s0.6,0.5,0.8,0.8s0.3,0.8,0.3,1.2l-0.8,0.1c0-0.5-0.2-0.9-0.4-1.1s-0.6-0.4-1.1-0.4s-0.8,0.1-1.1,0.3
			c-0.2,0.2-0.4,0.5-0.4,0.8s0.1,0.6,0.3,0.7c0.2,0.2,0.6,0.3,1.2,0.5c0.6,0.2,1.1,0.3,1.3,0.4c0.4,0.2,0.7,0.5,0.9,0.8
			s0.3,0.7,0.3,1.1c0,0.4-0.1,0.8-0.3,1.2s-0.5,0.6-0.8,0.8c-0.4,0.2-0.8,0.3-1.3,0.3c-0.8,0-1.4-0.2-1.9-0.7
			C182.5,131.5,182.2,130.8,182.2,130z"/>
		<path class="st0" d="M192.4,129.8l0.8,0.3c-0.2,0.9-0.5,1.5-1,1.9s-1,0.6-1.7,0.6c-0.6,0-1.1-0.1-1.5-0.4c-0.4-0.3-0.8-0.7-1-1.4
			s-0.4-1.4-0.4-2.2s0.1-1.6,0.4-2.1s0.6-1,1.1-1.3s1-0.4,1.5-0.4c0.6,0,1.1,0.2,1.6,0.6c0.4,0.4,0.7,0.9,0.9,1.7l-0.8,0.2
			c-0.3-1.1-0.8-1.6-1.7-1.6c-0.4,0-0.8,0.1-1.1,0.3c-0.3,0.2-0.6,0.6-0.7,1c-0.2,0.5-0.3,1-0.3,1.7c0,1.1,0.2,1.8,0.6,2.4
			c0.4,0.5,0.9,0.8,1.5,0.8c0.5,0,0.8-0.2,1.2-0.5S192.3,130.5,192.4,129.8z"/>
		<path class="st0" d="M193.4,130.2v-0.9h2.4v0.9H193.4z"/>
		<path class="st0" d="M200.7,129.8l0.8,0.3c-0.2,0.9-0.5,1.5-1,1.9s-1,0.6-1.7,0.6c-0.6,0-1.1-0.1-1.5-0.4c-0.4-0.3-0.8-0.7-1-1.4
			c-0.3-0.6-0.4-1.4-0.4-2.2s0.1-1.6,0.4-2.1c0.3-0.6,0.6-1,1.1-1.3s1-0.4,1.5-0.4c0.6,0,1.1,0.2,1.6,0.6c0.4,0.4,0.7,0.9,0.9,1.7
			l-0.8,0.2c-0.3-1.1-0.8-1.6-1.7-1.6c-0.4,0-0.8,0.1-1.1,0.3c-0.3,0.2-0.6,0.6-0.7,1c-0.2,0.5-0.3,1-0.3,1.7c0,1.1,0.2,1.8,0.6,2.4
			c0.4,0.5,0.9,0.8,1.5,0.8c0.5,0,0.8-0.2,1.2-0.5C200.4,131,200.6,130.5,200.7,129.8z"/>
		<path class="st0" d="M202.2,132.5v-7.7h4.6v0.9h-3.7v2.3h3.5v0.9h-3.5v2.6h3.9v0.9h-4.8V132.5z"/>
		<path class="st0" d="M207.6,132.5v-7.7h2.8c0.6,0,1,0.1,1.3,0.2s0.5,0.4,0.7,0.7c0.2,0.3,0.3,0.7,0.3,1.2c0,0.6-0.2,1-0.5,1.4
			s-0.7,0.6-1.3,0.7c0.2,0.1,0.4,0.3,0.5,0.4c0.2,0.3,0.5,0.6,0.7,1l1.1,2.1h-1l-0.8-1.6c-0.3-0.6-0.6-1-0.7-1.3
			c-0.2-0.2-0.3-0.4-0.5-0.4c-0.2-0.1-0.4-0.1-0.7-0.1h-1v3.4L207.6,132.5L207.6,132.5z M208.4,128.2h1.8c0.4,0,0.7,0,0.9-0.1
			s0.4-0.2,0.5-0.4s0.2-0.4,0.2-0.7c0-0.4-0.1-0.7-0.3-0.9c-0.2-0.2-0.6-0.3-1-0.3h-2L208.4,128.2L208.4,128.2z"/>
		<path class="st0" d="M213.1,130.5l0.8-0.1c0.2,1,0.6,1.5,1.2,1.5c0.4,0,0.7-0.1,0.9-0.4c0.3-0.3,0.4-0.7,0.4-1.2
			c0-0.4-0.1-0.8-0.4-1.1c-0.2-0.3-0.5-0.4-0.9-0.4c-0.1,0-0.3,0-0.5,0.1l0.1-0.8h0.1c0.4,0,0.7-0.1,0.9-0.4
			c0.2-0.2,0.4-0.5,0.4-0.9s-0.1-0.6-0.3-0.9c-0.2-0.2-0.4-0.3-0.7-0.3s-0.5,0.1-0.8,0.3c-0.2,0.2-0.3,0.6-0.4,1l-0.8-0.2
			c0.1-0.7,0.3-1.2,0.7-1.5s0.8-0.5,1.2-0.5c0.5,0,0.9,0.2,1.3,0.6c0.4,0.4,0.5,0.9,0.5,1.4c0,0.3-0.1,0.7-0.2,0.9s-0.4,0.5-0.6,0.6
			c0.3,0.1,0.5,0.2,0.6,0.3c0.2,0.2,0.3,0.4,0.4,0.6c0.1,0.3,0.2,0.6,0.2,0.9c0,0.7-0.2,1.3-0.6,1.7c-0.4,0.4-0.9,0.7-1.5,0.7
			c-0.5,0-1-0.2-1.4-0.6S213.2,131.1,213.1,130.5z"/>
		<path class="st0" d="M217.6,130.5l0.8-0.1c0.2,1,0.6,1.5,1.2,1.5c0.4,0,0.7-0.1,0.9-0.4c0.3-0.3,0.4-0.7,0.4-1.2
			c0-0.4-0.1-0.8-0.4-1.1c-0.2-0.3-0.5-0.4-0.9-0.4c-0.1,0-0.3,0-0.5,0.1l0.1-0.8h0.1c0.4,0,0.7-0.1,0.9-0.4
			c0.2-0.2,0.4-0.5,0.4-0.9s-0.1-0.6-0.3-0.9c-0.2-0.2-0.4-0.3-0.7-0.3s-0.5,0.1-0.8,0.3c-0.2,0.2-0.3,0.6-0.4,1l-0.8-0.2
			c0.1-0.7,0.3-1.2,0.7-1.5s0.8-0.5,1.2-0.5c0.5,0,0.9,0.2,1.3,0.6c0.4,0.4,0.5,0.9,0.5,1.4c0,0.3-0.1,0.7-0.2,0.9
			c-0.2,0.3-0.4,0.5-0.6,0.6c0.2,0.1,0.5,0.2,0.6,0.3c0.2,0.2,0.3,0.4,0.4,0.6c0.1,0.3,0.2,0.6,0.2,0.9c0,0.7-0.2,1.3-0.6,1.7
			c-0.4,0.4-0.9,0.7-1.5,0.7c-0.5,0-1-0.2-1.4-0.6S217.6,131.1,217.6,130.5z"/>
		<path class="st0" d="M222.1,130.7l0.7-0.1c0.1,0.8,0.5,1.2,1,1.2c0.3,0,0.5-0.1,0.7-0.3s0.4-0.5,0.5-0.9c0.1-0.5,0.2-1,0.2-1.6
			v-0.2c-0.2,0.3-0.4,0.6-0.7,0.7c-0.3,0.2-0.6,0.3-0.8,0.3c-0.5,0-1-0.2-1.3-0.7s-0.6-1.1-0.6-1.8c0-0.8,0.2-1.4,0.6-1.9
			c0.4-0.5,0.9-0.7,1.4-0.7c0.4,0,0.8,0.1,1.1,0.4s0.6,0.6,0.8,1.1s0.3,1.2,0.3,2.2c0,1.1-0.1,1.9-0.3,2.5s-0.5,1-0.8,1.3
			s-0.7,0.4-1.1,0.4c-0.5,0-0.9-0.2-1.2-0.5S222.2,131.4,222.1,130.7z M225.3,127.3c0-0.5-0.1-1-0.4-1.3c-0.2-0.3-0.5-0.5-0.8-0.5
			s-0.6,0.2-0.9,0.5s-0.4,0.8-0.4,1.3s0.1,0.9,0.4,1.2c0.2,0.3,0.5,0.4,0.9,0.4c0.3,0,0.6-0.2,0.9-0.5
			C225.2,128.3,225.3,127.9,225.3,127.3z"/>
		<path class="st0" d="M230.4,126.7l-0.8,0.1c-0.1-0.4-0.2-0.7-0.3-0.8c-0.2-0.2-0.5-0.4-0.7-0.4c-0.5,0-0.8,0.3-1.1,0.8
			c-0.2,0.5-0.4,1.2-0.4,2.1c0.2-0.3,0.4-0.6,0.7-0.8s0.6-0.3,0.9-0.3c0.5,0,0.9,0.2,1.3,0.7c0.4,0.5,0.6,1.1,0.6,1.8
			c0,0.5-0.1,1-0.3,1.4s-0.4,0.7-0.7,0.9s-0.6,0.3-1,0.3c-0.6,0-1.2-0.3-1.6-0.9c-0.4-0.6-0.6-1.5-0.6-2.9c0-1.5,0.2-2.5,0.6-3.2
			c0.4-0.6,1-0.9,1.6-0.9c0.5,0,0.9,0.2,1.2,0.5C230.2,125.6,230.4,126.1,230.4,126.7z M227.3,130c0,0.6,0.1,1,0.4,1.3
			c0.3,0.3,0.6,0.5,0.9,0.5c0.3,0,0.6-0.2,0.8-0.5s0.4-0.8,0.4-1.3s-0.1-1-0.4-1.3c-0.2-0.3-0.5-0.5-0.9-0.5c-0.3,0-0.6,0.1-0.9,0.4
			S227.3,129.5,227.3,130z"/>
		<path class="st0" d="M232.1,128.3c-0.3-0.1-0.5-0.3-0.7-0.6c-0.2-0.3-0.2-0.6-0.2-1c0-0.6,0.2-1.1,0.5-1.4
			c0.3-0.4,0.8-0.5,1.3-0.5s1,0.2,1.3,0.6s0.5,0.9,0.5,1.4c0,0.4-0.1,0.7-0.2,0.9c-0.2,0.3-0.4,0.5-0.7,0.6c0.4,0.2,0.7,0.4,0.9,0.7
			s0.3,0.8,0.3,1.2c0,0.7-0.2,1.2-0.6,1.7c-0.4,0.4-0.9,0.6-1.5,0.6s-1.1-0.2-1.5-0.6c-0.4-0.4-0.6-1-0.6-1.7c0-0.5,0.1-0.9,0.3-1.3
			C231.4,128.7,231.7,128.5,232.1,128.3z M231.7,130.3c0,0.5,0.1,0.9,0.4,1.1c0.3,0.3,0.6,0.4,0.9,0.4c0.4,0,0.7-0.1,0.9-0.4
			c0.2-0.3,0.4-0.7,0.4-1.1c0-0.5-0.1-0.9-0.4-1.1c-0.3-0.3-0.6-0.4-0.9-0.4c-0.4,0-0.7,0.1-0.9,0.4
			C231.8,129.5,231.7,129.8,231.7,130.3z M231.9,126.7c0,0.4,0.1,0.7,0.3,0.9s0.4,0.3,0.7,0.3s0.5-0.1,0.7-0.3s0.3-0.5,0.3-0.9
			s-0.1-0.7-0.3-0.9s-0.4-0.3-0.7-0.3s-0.5,0.1-0.7,0.3C232,126.1,231.9,126.4,231.9,126.7z"/>
		<path class="st0" d="M238.2,132.5h-0.8v-6c-0.2,0.2-0.4,0.4-0.7,0.6s-0.6,0.4-0.8,0.5v-0.9c0.4-0.2,0.8-0.5,1.1-0.9s0.6-0.7,0.7-1
			h0.5V132.5z"/>
	</g>
</g>
<g>
	<g>
		<g>
			<g>
				<path class="st1" d="M151.9,9.5c5.7,0,10.3,4.6,10.3,10.3v74.4c0,5.7-4.6,10.3-10.3,10.3h-43.6c-5.7,0-10.3-4.6-10.3-10.3V19.8
					c0-5.7,4.6-10.3,10.3-10.3L151.9,9.5 M108.3,102.9h43.6c4.8,0,8.7-3.9,8.7-8.7V67.3c-8.9,5.5-19.3,8.7-30.5,8.7
					s-21.7-3.2-30.6-8.8v26.9C99.6,99,103.5,102.9,108.3,102.9 M151.9,7.9h-43.6c-6.5,0-11.8,5.3-11.8,11.9v74.4
					c0,6.5,5.3,11.9,11.8,11.9h43.6c6.5,0,11.9-5.3,11.9-11.9V19.8C163.8,13.2,158.5,7.9,151.9,7.9 M108.3,101.3
					c-4,0-7.2-3.2-7.2-7.2V70c8.8,5,18.8,7.6,29,7.6s20.1-2.6,28.9-7.5v24.1c0,4-3.2,7.2-7.2,7.2L108.3,101.3L108.3,101.3z"/>
				<g>
					<path class="st1" d="M141.4,87.7c-0.3-0.2-0.6-0.3-0.9-0.3c-0.3,0-0.6,0.1-0.9,0.3c-0.3,0.2-0.5,0.4-0.6,0.7
						c-0.1,0.3-0.2,0.6-0.2,1s0.1,0.7,0.2,1c0.1,0.3,0.4,0.6,0.6,0.7c0.3,0.2,0.6,0.3,0.9,0.3c0.3,0,0.6-0.1,0.9-0.3
						s0.5-0.4,0.6-0.7c0.1-0.3,0.2-0.6,0.2-1s-0.1-0.7-0.2-1S141.6,87.9,141.4,87.7z"/>
					<path class="st1" d="M135.3,87.7c-0.3-0.2-0.6-0.3-0.9-0.3c-0.3,0-0.6,0.1-0.9,0.3c-0.3,0.2-0.5,0.4-0.6,0.7
						c-0.1,0.3-0.2,0.6-0.2,1s0.1,0.7,0.2,1c0.1,0.3,0.4,0.6,0.6,0.7c0.3,0.2,0.6,0.3,0.9,0.3c0.3,0,0.6-0.1,0.9-0.3
						s0.5-0.4,0.6-0.7c0.1-0.3,0.2-0.6,0.2-1s-0.1-0.7-0.2-1S135.6,87.9,135.3,87.7z"/>
					<path class="st1" d="M121,86.5c-0.3-0.2-0.7-0.3-1.1-0.3s-0.7,0.1-1.1,0.3c-0.3,0.2-0.6,0.5-0.8,0.9c-0.2,0.4-0.3,0.9-0.3,1.4
						s0.1,1,0.3,1.4c0.2,0.4,0.4,0.7,0.7,0.9c0.3,0.2,0.7,0.3,1.1,0.3s0.8-0.1,1.1-0.3c0.3-0.2,0.6-0.5,0.8-0.9s0.3-0.9,0.3-1.5
						c0-0.5-0.1-1-0.3-1.3C121.6,87,121.3,86.7,121,86.5z"/>
					<path class="st1" d="M130.2,76c-11.2,0-21.7-3.2-30.6-8.8v26.9c0,4.8,3.9,8.7,8.7,8.7h43.6c4.8,0,8.7-3.9,8.7-8.7V67.3
						C151.8,72.8,141.4,76,130.2,76z M109.3,92.5h-1.4v-7.3h1.4V92.5z M115.3,91.6c-0.2,0.3-0.5,0.5-0.9,0.7s-0.9,0.3-1.5,0.3
						c-0.3,0-0.7-0.1-1.1-0.2c-0.5-0.1-0.8-0.3-1-0.4l0.3-1.1c0.3,0.1,0.6,0.3,0.9,0.4s0.6,0.2,0.9,0.2c0.4,0,0.8-0.1,1-0.2
						s0.3-0.3,0.3-0.6c0-0.2-0.1-0.3-0.3-0.5c-0.2-0.1-0.4-0.3-0.8-0.5l-0.3-0.2c-0.5-0.3-0.9-0.5-1.1-0.7c-0.3-0.2-0.5-0.5-0.7-0.7
						c-0.2-0.3-0.3-0.6-0.3-1s0.1-0.7,0.3-1s0.5-0.5,0.9-0.7s0.8-0.3,1.4-0.3s1.3,0.2,2.1,0.5l-0.7,1c-0.3-0.1-0.6-0.3-0.8-0.3
						c-0.2-0.1-0.5-0.1-0.8-0.1s-0.6,0.1-0.8,0.2c-0.2,0.1-0.3,0.3-0.3,0.6c0,0.2,0.1,0.4,0.2,0.5c0.2,0.1,0.4,0.3,0.8,0.5l0.3,0.2
						l0.3,0.2c0.4,0.2,0.8,0.5,1,0.6c0.3,0.2,0.5,0.4,0.6,0.7c0.2,0.3,0.3,0.6,0.3,0.9C115.6,91,115.5,91.3,115.3,91.6z M123,90.8
						c-0.3,0.6-0.7,1-1.3,1.4c-0.5,0.3-1.2,0.5-1.9,0.5c-0.7,0-1.4-0.2-1.9-0.5s-1-0.8-1.2-1.4c-0.3-0.6-0.4-1.2-0.4-1.9
						c0-0.7,0.1-1.4,0.4-2s0.7-1,1.3-1.4c0.5-0.3,1.2-0.5,1.9-0.5c0.7,0,1.4,0.2,1.9,0.5s1,0.8,1.2,1.4c0.3,0.6,0.4,1.2,0.4,1.9
						C123.5,89.5,123.3,90.2,123,90.8z M131.1,92.2c-0.2,0.4-0.5,0.6-0.9,0.8s-0.9,0.3-1.4,0.3c-0.4,0-0.8-0.1-1.2-0.2
						s-0.8-0.3-1.1-0.5l0.7-1c0.3,0.2,0.6,0.3,0.8,0.4c0.3,0.1,0.5,0.1,0.8,0.1c0.4,0,0.7-0.1,1-0.3c0.3-0.2,0.4-0.5,0.4-0.9
						c0-0.3-0.1-0.6-0.3-0.8c-0.2-0.2-0.5-0.3-0.8-0.3c-0.2,0-0.4,0.1-0.6,0.2c-0.2,0.1-0.3,0.2-0.3,0.3H127l0.2-3.9h3.9l-0.2,1.1
						h-2.6l-0.1,1.3c0.2-0.1,0.5-0.2,0.8-0.2c0.5,0,1,0.1,1.3,0.3s0.6,0.5,0.8,0.8s0.3,0.7,0.3,1.1
						C131.4,91.4,131.3,91.8,131.1,92.2z M137,91.1c-0.3,0.5-0.6,0.9-1.1,1.1c-0.5,0.3-1,0.4-1.5,0.4c-0.6,0-1.1-0.1-1.5-0.4
						c-0.5-0.3-0.8-0.7-1.1-1.1c-0.3-0.5-0.4-1-0.4-1.6s0.1-1.1,0.4-1.6c0.3-0.5,0.6-0.9,1.1-1.1c0.5-0.3,1-0.4,1.5-0.4
						c0.6,0,1.1,0.1,1.5,0.4s0.8,0.6,1.1,1.1s0.4,1,0.4,1.6C137.4,90,137.3,90.6,137,91.1z M143.1,91.1c-0.3,0.5-0.6,0.9-1.1,1.1
						c-0.5,0.3-1,0.4-1.5,0.4c-0.6,0-1.1-0.1-1.5-0.4c-0.5-0.3-0.8-0.7-1.1-1.1c-0.3-0.5-0.4-1-0.4-1.6s0.1-1.1,0.4-1.6
						c0.3-0.5,0.6-0.9,1.1-1.1c0.5-0.3,1-0.4,1.5-0.4c0.6,0,1.1,0.1,1.5,0.4s0.8,0.6,1.1,1.1s0.4,1,0.4,1.6
						C143.5,90,143.3,90.6,143.1,91.1z M149.1,91.1c-0.3,0.5-0.6,0.9-1.1,1.1c-0.5,0.3-1,0.4-1.5,0.4c-0.6,0-1.1-0.1-1.5-0.4
						c-0.5-0.3-0.8-0.7-1.1-1.1c-0.3-0.5-0.4-1-0.4-1.6s0.1-1.1,0.4-1.6c0.3-0.5,0.6-0.9,1.1-1.1c0.5-0.3,1-0.4,1.5-0.4
						c0.6,0,1.1,0.1,1.5,0.4s0.8,0.6,1.1,1.1s0.4,1,0.4,1.6C149.5,90,149.4,90.6,149.1,91.1z M152.6,92.5h-1.4V88l-1.2,0.5l-0.5-1
						l2.2-1h0.9V92.5z"/>
					<path class="st1" d="M147.4,87.7c-0.3-0.2-0.6-0.3-0.9-0.3c-0.3,0-0.6,0.1-0.9,0.3c-0.3,0.2-0.5,0.4-0.6,0.7
						c-0.1,0.3-0.2,0.6-0.2,1s0.1,0.7,0.2,1c0.1,0.3,0.4,0.6,0.6,0.7c0.3,0.2,0.6,0.3,0.9,0.3c0.3,0,0.6-0.1,0.9-0.3
						s0.5-0.4,0.6-0.7c0.1-0.3,0.2-0.6,0.2-1s-0.1-0.7-0.2-1S147.7,87.9,147.4,87.7z"/>
				</g>
				<path class="st1" d="M130.1,38.3c-2.7,0-5-2.2-5-5c0-2.7,2.2-5,5-5c2.7,0,5,2.2,5,5S132.9,38.3,130.1,38.3 M130.2,30.3
					c-1.7,0-3.1,1.4-3.1,3.1c0,1.7,1.4,3.1,3.1,3.1c1.7,0,3.1-1.4,3.1-3.1C133.3,31.7,131.9,30.3,130.2,30.3"/>
				<path class="st1" d="M121.1,41.2c-1.8-2.1-2.9-4.8-2.9-7.8c0-2.4,0.7-4.6,1.9-6.5l-1.5-1.1c-1.4,2.2-2.3,4.8-2.3,7.6
					c0,3.5,1.3,6.7,3.4,9.1L121.1,41.2z"/>
				<path class="st1" d="M119.8,24.3l1.3,1.3c0.4-0.5,0.8-0.9,1.3-1.3l-1.3-1.3C120.6,23.4,120.2,23.8,119.8,24.3"/>
				<path class="st1" d="M130.2,19.5c-2.8,0-5.4,0.8-7.6,2.3l1.1,1.5c1.9-1.2,4.1-1.9,6.5-1.9c3.1,0,6,1.2,8.3,3.3l1.6-1
					C137.5,21,134,19.5,130.2,19.5"/>
				<path class="st1" d="M135.7,38.5c-1.4,1.5-3.3,2.4-5.5,2.4c-4.2,0-7.5-3.4-7.5-7.6s3.4-7.5,7.6-7.5c1.5,0,3,0.5,4.3,1.3l1.7-1
					c-1.7-1.3-3.7-2.1-5.9-2.1c-5.2,0-9.4,4.2-9.4,9.4s4.2,9.4,9.4,9.4c2.8,0,5.3-1.2,7-3.2L135.7,38.5z"/>
				<path class="st1" d="M136.9,43.4c-1.9,1.3-4.2,2-6.7,2c-3,0-5.7-1.1-7.8-2.9l-1.3,1.3c2.4,2.1,5.6,3.4,9.1,3.4
					c2.9,0,5.6-0.9,7.8-2.4L136.9,43.4z"/>
				<path class="st1" d="M141.3,25.1l-5.4,3.3c0,0,1.8,2.1,1.8,5c0,1.3-0.3,2.6-0.9,3.6l1.5,1.1c0.8-1.4,1.3-3,1.3-4.7
					c0-1.6-0.4-3.1-1.1-4.4l2.2-1.4c1,1.8,1.5,3.8,1.5,5.8c0,3.5-1.5,6.6-3.9,8.8l1.1,1.4c2.8-2.5,4.6-6.2,4.6-10.3
					C144,28.5,141.3,25.1,141.3,25.1"/>
				<path class="st1" d="M120.3,54.1c-2.1,0-3.9,1.7-3.9,3.9c0,2.1,1.7,3.9,3.9,3.9c2.1,0,3.9-1.7,3.9-3.9S122.4,54.1,120.3,54.1
					 M120.3,60.3c-1.3,0-2.3-1-2.3-2.3s1-2.3,2.3-2.3c1.3,0,2.3,1,2.3,2.3C122.6,59.2,121.6,60.3,120.3,60.3"/>
				<path class="st1" d="M107.3,61.6h-1.6V55h1.6V61.6z M106.5,54.1c-0.6,0-1-0.4-1-1s0.4-1,1-1s1,0.4,1,1S107,54.1,106.5,54.1"/>
				<path class="st1" d="M129.4,54.1c-2.1,0-3.9,1.7-3.9,3.9v3.7h1.7v-3.8c0-1.2,1-2.2,2.2-2.2s2.1,0.9,2.2,2.1v3.9h1.7V58
					C133.3,55.8,131.5,54.1,129.4,54.1"/>
				<path class="st1" d="M138.5,60.4L138.5,60.4c0,0-0.3,0-0.4,0c-0.7,0-1-0.2-1-1.2v-3.8h1.4v-1.3h-1.4v-1.5h-1.7v1.5h-1v1.3h1V59
					c0,0.5,0,1.3,0.4,1.9c0.4,0.7,1,1,1.9,1c0.4,0,0.8-0.1,0.8-0.1V60.4z"/>
				<path class="st1" d="M112.7,61.9c-2.2,0-3.9-1.8-3.9-3.9c0-2.1,1.8-3.9,3.9-3.9c1.8,0,2.8,1.2,2.8,1.2l-1,1.3
					c0,0-0.6-0.9-1.8-0.9c-1.3,0-2.3,1-2.3,2.3c0,1.2,1,2.3,2.3,2.3c1.2,0,1.8-0.9,1.8-0.9l1,1.3C115.6,60.6,114.5,61.9,112.7,61.9"
					/>
				<path class="st1" d="M152,61.9c-2.2,0-3.9-1.8-3.9-3.9c0-2.1,1.8-3.9,3.9-3.9c1.8,0,2.8,1.2,2.8,1.2l-1,1.3c0,0-0.6-0.9-1.8-0.9
					c-1.3,0-2.3,1-2.3,2.3c0,1.2,1,2.3,2.3,2.3c1.2,0,1.8-0.9,1.8-0.9l1,1.3C154.9,60.6,153.8,61.9,152,61.9"/>
				<path class="st1" d="M143.3,54c-2.3,0-3.6,1.9-3.6,3.9c0,2.3,1.6,3.9,3.9,3.9c2.3,0,3.2-1.7,3.2-1.7l-1.2-0.9c0,0-0.6,1.1-2,1.1
					c-1.2,0-2.1-0.8-2.2-1.9h5.5c0,0,0-0.4,0-0.5C146.9,56.3,146,54,143.3,54 M141.4,57.2c0.1-1,0.9-1.6,1.9-1.6s1.8,0.6,1.9,1.6
					H141.4z"/>
			</g>
		</g>
	</g>
</g>
<g>
	<polygon class="st2" points="374.4,84.7 376,84.7 375.2,82.6 	"/>
	<path class="st2" d="M375.8,73.8h-1.2v1.3h1.2c0.2,0,0.4-0.1,0.5-0.2s0.2-0.3,0.2-0.5s-0.1-0.4-0.2-0.5S376,73.8,375.8,73.8z"/>
	<path class="st2" d="M399.8,74.2c-0.2-0.1-0.4-0.2-0.6-0.3c-0.2-0.1-0.5-0.1-0.7-0.1H398v3.5h0.5c0.3,0,0.5,0,0.7-0.1
		s0.4-0.2,0.6-0.3c0.2-0.1,0.3-0.3,0.4-0.5s0.2-0.5,0.2-0.8s-0.1-0.6-0.2-0.8C400.1,74.5,400,74.4,399.8,74.2z"/>
	<polygon class="st2" points="362.8,84.7 364.4,84.7 363.6,82.6 	"/>
	<path class="st2" d="M368.6,61.8c0.7-0.4,1.3-1,1.7-1.7c0.4-0.7,0.6-1.5,0.6-2.4s-0.2-1.7-0.6-2.5c-0.4-0.7-1-1.3-1.7-1.7
		s-1.5-0.6-2.4-0.6s-1.7,0.2-2.4,0.6c-0.7,0.4-1.3,1-1.7,1.8c-0.4,0.7-0.6,1.6-0.6,2.4c0,1.4,0.5,2.5,1.4,3.3
		c0.9,0.9,2.1,1.3,3.4,1.3C367.1,62.4,367.9,62.2,368.6,61.8z"/>
	<path class="st2" d="M385.1,7.9h-5.9c-25.7,1.5-46.1,22.8-46.2,48.9c-0.1,26.2,20.4,47.6,46.2,49.2h5.9
		c25.7-1.5,46.2-22.8,46.2-48.9C431.4,30.9,410.9,9.4,385.1,7.9z M406.9,33.1c1.1,0,1.9,0.9,1.9,2s-0.9,1.9-2,1.9s-1.9-0.9-1.9-2
		S405.8,33,406.9,33.1z M403,29.6c1,0,1.9,0.9,1.8,1.9c0,1-0.9,1.9-1.9,1.8c-1,0-1.9-0.9-1.8-1.9C401.1,30.3,402,29.5,403,29.6z
		 M398.7,26.7c1,0,1.8,0.9,1.7,1.9c0,1-0.9,1.8-1.9,1.7c-1,0-1.8-0.9-1.7-1.9C396.9,27.4,397.7,26.6,398.7,26.7z M397.4,33.8
		c0,1-0.9,1.8-1.9,1.7c-1,0-1.8-0.9-1.7-1.9c0-1,0.9-1.8,1.9-1.7C396.7,31.9,397.4,32.8,397.4,33.8z M395.3,75v0.9h-1.9v1.4h2.4v0.9
		h-3.3v-5.3h3.3v0.9h-2.4V75H395.3z M391.7,33.6c-1,0-1.7-0.8-1.7-1.8c0-1,0.8-1.7,1.8-1.7s1.7,0.8,1.7,1.8
		C393.4,32.9,392.6,33.6,391.7,33.6z M393.9,24.5c1,0,1.7,0.8,1.7,1.8s-0.8,1.7-1.8,1.7s-1.7-0.8-1.7-1.8S393,24.4,393.9,24.5z
		 M390.3,15.9c1.3,0,2.4,1.2,2.3,2.5c0,1.3-1.2,2.4-2.5,2.3c-1.3,0-2.4-1.2-2.3-2.5C387.8,16.9,388.9,15.8,390.3,15.9z M388.7,23.1
		c0.9,0,1.6,0.8,1.6,1.7c0,0.9-0.8,1.6-1.7,1.6c-0.9,0-1.6-0.8-1.6-1.7C387.1,23.7,387.8,23,388.7,23.1z M387.6,29
		c0.9,0,1.6,0.8,1.6,1.7c0,0.9-0.8,1.6-1.7,1.6c-0.9,0-1.6-0.8-1.6-1.7C386,29.7,386.7,29,387.6,29z M384.1,15.2
		c1.3,0,2.3,1.1,2.2,2.4c0,1.3-1.1,2.3-2.4,2.2c-1.3,0-2.3-1.1-2.2-2.4C381.7,16.1,382.8,15.1,384.1,15.2z M383.6,25.6
		c-0.9,0-1.5-0.7-1.5-1.6s0.7-1.5,1.6-1.5s1.5,0.8,1.5,1.6C385.2,25,384.4,25.7,383.6,25.6z M384.9,30.2c0,0.9-0.7,1.5-1.6,1.5
		s-1.5-0.7-1.5-1.6s0.8-1.5,1.6-1.5C384.2,28.6,384.9,29.3,384.9,30.2z M388.6,59.9v-9.8h3.2v15.2h-3.2L381,54.8v10.5h-3.2V50.1h3.7
		L388.6,59.9z M391,72.9v5.3h-0.9v-5.3H391z M388.6,75v0.9h-1.8v2.3h-0.9v-5.3h3.3v0.9h-2.3V75H388.6z M387.4,83.6v0.9h-1.9v1.4h2.4
		v0.9h-3.3v-5.3h3.3v0.9h-2.4v1.2H387.4z M384.4,72.9v5.3h-0.9v-5.3H384.4z M378.2,73.8v-0.9h4.3v0.9h-1.7v4.4h-0.9v-4.4H378.2z
		 M380.5,30.3c0,0.8-0.7,1.5-1.5,1.4c-0.8,0-1.5-0.7-1.4-1.5c0-0.8,0.7-1.5,1.5-1.4S380.6,29.4,380.5,30.3z M377.5,78.2h-1l-1.3-2.2
		h-0.6v2.2h-0.9v-5.3h2.1c0.5,0,0.9,0.1,1.2,0.4s0.4,0.7,0.4,1.1s-0.1,0.7-0.3,1s-0.5,0.4-0.9,0.5L377.5,78.2z M376.9,24.2
		c0-0.8,0.7-1.5,1.5-1.4c0.8,0,1.5,0.7,1.4,1.5c0,0.8-0.7,1.5-1.5,1.4S376.9,25,376.9,24.2z M377.7,15.4c1.2,0,2.2,1.1,2.2,2.3
		c0,1.2-1.1,2.2-2.3,2.2c-1.2,0-2.2-1.1-2.2-2.3C375.5,16.4,376.5,15.4,377.7,15.4z M376.2,31.1c0,0.8-0.7,1.4-1.4,1.4
		c-0.8,0-1.4-0.7-1.4-1.4c0-0.8,0.7-1.4,1.4-1.4C375.6,29.7,376.2,30.3,376.2,31.1z M374.6,25.2c0,0.8-0.7,1.4-1.4,1.4
		c-0.8,0-1.4-0.7-1.4-1.4s0.7-1.4,1.4-1.4C374,23.8,374.6,24.5,374.6,25.2z M372.1,32.5c0,0.7-0.6,1.3-1.4,1.3
		c-0.7,0-1.3-0.6-1.3-1.4c0-0.7,0.6-1.3,1.4-1.3C371.5,31.1,372.1,31.8,372.1,32.5z M371.5,16.7c1.2,0,2.1,1,2.1,2.2s-1,2.1-2.2,2.1
		s-2.1-1-2.1-2.2C369.4,17.6,370.4,16.6,371.5,16.7z M369.6,27c0,0.7-0.6,1.3-1.4,1.3c-0.7,0-1.3-0.6-1.3-1.4c0-0.7,0.6-1.3,1.4-1.3
		C369,25.7,369.6,26.3,369.6,27z M368.2,34.6c0,0.7-0.6,1.2-1.3,1.2s-1.2-0.6-1.2-1.3s0.6-1.2,1.3-1.2
		C367.7,33.3,368.2,33.9,368.2,34.6z M365.6,18.9c1.1,0,2.1,1,2,2.2c0,1.2-1,2.1-2.2,2c-1.2,0-2.1-1-2-2.2
		C363.5,19.7,364.5,18.8,365.6,18.9z M363.7,28.2c0.7,0,1.2,0.6,1.2,1.3c0,0.7-0.6,1.2-1.3,1.2c-0.7,0-1.2-0.6-1.2-1.3
		C362.4,28.8,363,28.2,363.7,28.2z M363.6,36c0.6,0,1.1,0.6,1.1,1.2c0,0.6-0.6,1.1-1.2,1.1s-1.1-0.6-1.1-1.2
		C362.4,36.5,362.9,36,363.6,36z M360.1,22c1.1,0,2,1,1.9,2.1c0,1.1-1,2-2.1,1.9c-1.1,0-2-1-1.9-2.1S359,21.9,360.1,22z M360.6,32.7
		c0,0.6-0.6,1.1-1.2,1.1s-1.1-0.6-1.1-1.2c0-0.6,0.6-1.1,1.2-1.1C360.2,31.6,360.7,32.1,360.6,32.7z M355.1,25.9
		c1.1,0,1.9,0.9,1.9,2s-0.9,1.9-2,1.9s-1.9-0.9-1.9-2C353.2,26.7,354.1,25.9,355.1,25.9z M357,36.5c0,0.6-0.5,1.1-1.1,1
		c-0.6,0-1.1-0.5-1-1.1c0-0.6,0.5-1.1,1.1-1C356.5,35.5,357,35.9,357,36.5z M344.6,41.5c1,0,1.7,0.8,1.7,1.8s-0.8,1.7-1.8,1.7
		s-1.7-0.8-1.7-1.8S343.6,41.5,344.6,41.5z M342.8,47.6c0.9,0,1.7,0.8,1.6,1.7c0,0.9-0.8,1.7-1.7,1.6c-0.9,0-1.7-0.8-1.6-1.7
		C341.1,48.3,341.9,47.6,342.8,47.6z M342,53.9c0.9,0,1.6,0.8,1.5,1.7c0,0.9-0.8,1.6-1.7,1.6s-1.6-0.8-1.6-1.7S341.1,53.9,342,53.9z
		 M340.6,61.8c0-0.8,0.7-1.5,1.6-1.5c0.8,0,1.5,0.7,1.5,1.6c0,0.8-0.7,1.5-1.6,1.5C341.2,63.3,340.6,62.6,340.6,61.8z M341.8,67.9
		c0-0.8,0.7-1.4,1.5-1.4s1.4,0.7,1.4,1.5s-0.7,1.4-1.5,1.4S341.8,68.7,341.8,67.9z M345.4,75.1c-0.8,0-1.3-0.7-1.3-1.4
		c0-0.8,0.7-1.3,1.4-1.3c0.8,0,1.3,0.7,1.3,1.4S346.1,75.1,345.4,75.1z M347.1,39.4c-1,0-1.8-0.9-1.8-1.9s0.9-1.8,1.9-1.8
		s1.8,0.9,1.8,1.9C349,38.7,348.2,39.5,347.1,39.4z M348.8,32.3c0-1.1,0.9-1.9,2-1.9s1.9,0.9,1.9,2c0,1.1-0.9,1.9-2,1.9
		C349.6,34.3,348.8,33.4,348.8,32.3z M352.9,39.8c0.6,0,1,0.5,1,1c0,0.6-0.5,1-1,1c-0.6,0-1-0.5-1-1S352.4,39.8,352.9,39.8z
		 M351.9,50.1h3.2v15.2h-3.2V50.1z M360.2,86.8h-0.9v-4l-1.3,2h-0.9l-1.3-2v4h-0.9v-5.3h1.2l1.5,2.3l1.5-2.3h1.2v5.3H360.2z
		 M358.9,60.7c-0.4-1-0.6-2-0.6-3.1c0-1.4,0.3-2.7,1-3.9s1.6-2.1,2.9-2.8c1.2-0.7,2.6-1,4-1c1.1,0,2.1,0.2,3.1,0.6
		c1,0.4,1.8,0.9,2.5,1.6c0.7,0.7,1.3,1.5,1.7,2.5c0.4,1,0.6,2,0.6,3.1c0,1.8-0.6,3.4-1.8,4.6h2.8v3.1h-9c-1,0-2-0.2-3-0.6
		c-0.9-0.4-1.8-0.9-2.5-1.6C359.8,62.5,359.3,61.7,358.9,60.7z M372,75v0.9h-1.9v1.4h2.4v0.9h-3.3v-5.3h3.3v0.9h-2.4V75H372z
		 M365.1,86.8l-0.4-1.1h-2.3l-0.4,1.1h-1l2.1-5.3h1l2.1,5.3H365.1z M364.8,78c-0.4-0.2-0.8-0.6-1-1s-0.4-0.9-0.4-1.4
		c0-0.4,0.1-0.7,0.2-1.1c0.1-0.3,0.3-0.6,0.6-0.9c0.2-0.2,0.5-0.4,0.9-0.6c0.3-0.1,0.7-0.2,1.1-0.2s0.7,0.1,1.1,0.2
		c0.3,0.1,0.6,0.4,0.9,0.6l-0.6,0.7c-0.4-0.4-0.8-0.6-1.4-0.6c-0.3,0-0.6,0.1-0.9,0.3c-0.3,0.2-0.5,0.4-0.7,0.7
		c-0.2,0.3-0.2,0.6-0.2,0.9s0.1,0.7,0.2,0.9c0.2,0.3,0.4,0.5,0.7,0.7c0.3,0.2,0.6,0.2,0.9,0.2c0.2,0,0.5-0.1,0.7-0.2
		s0.4-0.2,0.6-0.4l0.5,0.7c-0.3,0.2-0.5,0.4-0.9,0.6s-0.7,0.2-1,0.2C365.7,78.3,365.2,78.2,364.8,78z M371,95
		c-0.3,0.3-0.7,0.4-1.3,0.4c-0.2,0-0.4,0-0.6-0.1c-0.2,0-0.4-0.1-0.6-0.3c-0.2-0.1-0.4-0.3-0.6-0.6l0.6-0.6c0.1,0.1,0.2,0.2,0.2,0.3
		s0.2,0.1,0.3,0.2c0.1,0.1,0.2,0.1,0.3,0.2c0.1,0,0.3,0.1,0.4,0.1c0.3,0,0.5-0.1,0.6-0.2s0.2-0.3,0.2-0.5c0-0.1,0-0.2-0.1-0.3
		c-0.1-0.1-0.1-0.2-0.2-0.2s-0.2-0.1-0.3-0.2c-0.1-0.1-0.2-0.1-0.4-0.2c-0.1-0.1-0.3-0.1-0.4-0.2s-0.3-0.1-0.4-0.2s-0.2-0.2-0.3-0.3
		c-0.1-0.1-0.2-0.2-0.2-0.4s-0.1-0.3-0.1-0.5c0-0.5,0.2-0.8,0.5-1.1c0.3-0.3,0.7-0.4,1.2-0.4s1,0.2,1.4,0.5l-0.5,0.7
		c-0.3-0.2-0.6-0.4-1-0.4c-0.2,0-0.4,0-0.5,0.1S369,91,369,91.2c0,0.1,0,0.3,0.1,0.4s0.2,0.2,0.3,0.3c0.1,0.1,0.3,0.1,0.5,0.2
		s0.3,0.1,0.5,0.2s0.3,0.2,0.5,0.3s0.3,0.3,0.3,0.5s0.1,0.4,0.1,0.7C371.5,94.3,371.4,94.7,371,95z M371.8,86.8h-1l-2.9-4v4H367
		v-5.3h1.2l2.7,3.8v-3.8h0.9L371.8,86.8L371.8,86.8z M374.8,92.9v2.3h-0.9v-2.3L372,90h1.1l1.3,2.1l1.3-2.1h1.1L374.8,92.9z
		 M376.3,85.6H374l-0.4,1.1h-1l2.1-5.3h1l2.1,5.3h-1L376.3,85.6z M380.1,95c-0.3,0.3-0.7,0.4-1.3,0.4c-0.2,0-0.4,0-0.6-0.1
		c-0.2,0-0.4-0.1-0.6-0.3c-0.2-0.1-0.4-0.3-0.6-0.6l0.6-0.6c0.1,0.1,0.2,0.2,0.2,0.3s0.2,0.1,0.3,0.2c0.1,0.1,0.2,0.1,0.3,0.2
		c0.1,0,0.3,0.1,0.4,0.1c0.3,0,0.5-0.1,0.6-0.2s0.2-0.3,0.2-0.5c0-0.1,0-0.2-0.1-0.3c-0.1-0.1-0.1-0.2-0.2-0.2s-0.2-0.1-0.3-0.2
		c-0.1-0.1-0.2-0.1-0.4-0.2c-0.1-0.1-0.3-0.1-0.4-0.2s-0.3-0.1-0.4-0.2s-0.2-0.2-0.3-0.3c-0.1-0.1-0.2-0.2-0.2-0.4s-0.1-0.3-0.1-0.5
		c0-0.5,0.2-0.8,0.5-1.1c0.3-0.3,0.7-0.4,1.2-0.4s1,0.2,1.4,0.5l-0.5,0.7c-0.3-0.2-0.6-0.4-1-0.4c-0.2,0-0.4,0-0.5,0.1
		s-0.2,0.2-0.2,0.4c0,0.1,0,0.3,0.1,0.4s0.2,0.2,0.3,0.3c0.1,0.1,0.3,0.1,0.5,0.2s0.3,0.1,0.5,0.2s0.3,0.2,0.5,0.3s0.3,0.3,0.3,0.5
		s0.1,0.4,0.1,0.7C380.6,94.3,380.5,94.7,380.1,95z M379.8,86.6c-0.3-0.1-0.6-0.3-0.9-0.6s-0.4-0.5-0.6-0.9
		c-0.1-0.3-0.2-0.7-0.2-1.1s0.1-0.7,0.2-1.1c0.1-0.3,0.3-0.6,0.6-0.9c0.2-0.2,0.5-0.4,0.9-0.6c0.3-0.1,0.7-0.2,1.1-0.2
		s0.8,0.1,1.1,0.2c0.3,0.1,0.6,0.3,0.9,0.6l-0.6,0.6c-0.2-0.2-0.4-0.4-0.6-0.5s-0.5-0.1-0.8-0.1c-0.4,0-0.7,0.1-1,0.3
		s-0.5,0.4-0.7,0.7c-0.2,0.3-0.2,0.6-0.2,0.9c0,0.5,0.2,1,0.5,1.3c0.4,0.4,0.8,0.5,1.3,0.5c0.4,0,0.7-0.1,1-0.3
		c0.3-0.2,0.4-0.6,0.5-1h-1.7v-0.9h2.6v0.6c0,0.3-0.1,0.7-0.2,1s-0.2,0.6-0.4,0.8c-0.2,0.2-0.4,0.4-0.8,0.6c-0.3,0.1-0.7,0.2-1,0.2
		C380.5,86.8,380.1,86.8,379.8,86.6z M385.4,90.9h-1.7v4.4h-0.9v-4.4h-1.7V90h4.3L385.4,90.9L385.4,90.9z M389.8,90.9h-2.4v1.2h1.9
		V93h-1.9v1.4h2.4v0.9h-3.4V90h3.3v0.9H389.8z M390,86.8h-0.9v-5.3h1.2l1.5,2.3l1.5-2.3h1.2v5.3h-0.9v-4l-1.3,2h-0.9l-1.3-2v4H390z
		 M396.3,95.3h-0.9v-4l-1.3,2h-0.9l-1.3-2v4H391V90h1.2l1.5,2.3l1.5-2.3h1.2v5.3H396.3z M399.1,82.4h-2.4v1.2h1.9v0.9h-1.9v1.4h2.4
		v0.9h-3.3v-5.3h3.3V82.4z M398.5,78.2H397v-5.3h1.5c0.6,0,1.1,0.1,1.5,0.3c0.4,0.2,0.8,0.5,1,0.9s0.4,0.9,0.4,1.4s-0.1,1-0.4,1.4
		c-0.2,0.4-0.6,0.7-1,0.9C399.5,78.1,399,78.2,398.5,78.2z M405.1,86.8h-1l-2.9-4v4h-0.9v-5.3h1.2l2.7,3.8v-3.8h0.9L405.1,86.8
		L405.1,86.8z M405.7,53.2h-7.3v2.6h5.9v3.1h-5.9v3.3h7.3v3.1h-10.5V50.1h10.5V53.2z M410.5,82.4h-1.7v4.4h-0.9v-4.4h-1.7v-0.9h4.3
		L410.5,82.4L410.5,82.4z M416.6,53.2v12.1h-3.2V53.2h-4.7v-3.1h12.6v3.1H416.6z"/>
</g>
<g>
	<path class="st0" d="M269.3,119.2l0.8,0.3c-0.2,0.9-0.5,1.5-1,1.9s-1,0.6-1.7,0.6c-0.6,0-1.1-0.1-1.5-0.4c-0.4-0.3-0.8-0.7-1-1.4
		c-0.3-0.6-0.4-1.4-0.4-2.2c0-0.8,0.1-1.6,0.4-2.1c0.3-0.6,0.6-1,1.1-1.3c0.5-0.3,1-0.4,1.5-0.4c0.6,0,1.1,0.2,1.6,0.6
		c0.4,0.4,0.7,0.9,0.9,1.7l-0.8,0.2c-0.3-1.1-0.8-1.6-1.7-1.6c-0.4,0-0.8,0.1-1.1,0.3c-0.3,0.2-0.6,0.6-0.7,1
		c-0.2,0.5-0.3,1-0.3,1.7c0,1.1,0.2,1.8,0.6,2.4c0.4,0.5,0.9,0.8,1.5,0.8c0.5,0,0.8-0.2,1.2-0.5
		C268.9,120.3,269.2,119.9,269.3,119.2z"/>
	<path class="st0" d="M273.7,120.1l0.8,0.1c-0.1,0.6-0.4,1-0.7,1.3c-0.3,0.3-0.8,0.5-1.3,0.5c-0.6,0-1.2-0.2-1.6-0.7
		s-0.6-1.2-0.6-2.1c0-1,0.2-1.7,0.6-2.2c0.4-0.5,0.9-0.8,1.5-0.8c0.6,0,1.1,0.2,1.5,0.7c0.4,0.5,0.6,1.2,0.6,2.2l0,0.3h-3.4
		c0,0.6,0.2,1.1,0.4,1.4c0.3,0.3,0.6,0.5,0.9,0.5C273.1,121.2,273.5,120.9,273.7,120.1z M271.2,118.6h2.5c0-0.5-0.1-0.8-0.3-1.1
		c-0.2-0.3-0.6-0.5-0.9-0.5c-0.3,0-0.6,0.1-0.9,0.4C271.3,117.7,271.2,118.1,271.2,118.6z"/>
	<path class="st0" d="M275,121.9v-5.6h0.7v0.8c0.2-0.4,0.3-0.7,0.5-0.8c0.1-0.1,0.3-0.2,0.5-0.2c0.3,0,0.5,0.1,0.8,0.3l-0.3,0.9
		c-0.2-0.1-0.4-0.2-0.6-0.2c-0.2,0-0.3,0.1-0.5,0.2c-0.1,0.1-0.2,0.3-0.3,0.5c-0.1,0.4-0.1,0.7-0.1,1.1v2.9H275z"/>
	<path class="st0" d="M279.2,121.1l0.1,0.8c-0.2,0.1-0.4,0.1-0.6,0.1c-0.3,0-0.5-0.1-0.7-0.2c-0.2-0.1-0.3-0.3-0.3-0.4
		c-0.1-0.2-0.1-0.6-0.1-1.1v-3.2h-0.6v-0.7h0.6v-1.4l0.8-0.6v1.9h0.8v0.7h-0.8v3.3c0,0.3,0,0.5,0.1,0.6c0.1,0.1,0.2,0.2,0.4,0.2
		C279,121.1,279.1,121.1,279.2,121.1z"/>
	<path class="st0" d="M279.5,115.3v-1.1h0.8v1.1H279.5z M279.5,121.9v-5.6h0.8v5.6H279.5z"/>
	<path class="st0" d="M281.2,121.9v-4.8h-0.7v-0.7h0.7v-0.6c0-0.4,0-0.8,0.1-1c0.1-0.2,0.2-0.4,0.4-0.5s0.4-0.2,0.7-0.2
		c0.2,0,0.5,0,0.7,0.1l-0.1,0.8c-0.2,0-0.3-0.1-0.5-0.1c-0.2,0-0.4,0.1-0.5,0.2c-0.1,0.1-0.1,0.4-0.1,0.7v0.5h0.9v0.7H282v4.8H281.2
		z"/>
	<path class="st0" d="M283,115.3v-1.1h0.8v1.1H283z M283,121.9v-5.6h0.8v5.6H283z"/>
	<path class="st0" d="M287.4,119.9l0.8,0.1c-0.1,0.7-0.3,1.2-0.7,1.5s-0.8,0.5-1.3,0.5c-0.6,0-1.1-0.2-1.5-0.7
		c-0.4-0.5-0.6-1.2-0.6-2.2c0-1,0.2-1.7,0.6-2.2c0.4-0.5,0.9-0.7,1.5-0.7c0.5,0,0.9,0.1,1.2,0.4c0.3,0.3,0.5,0.7,0.6,1.3l-0.8,0.1
		c-0.1-0.4-0.2-0.7-0.4-0.8c-0.2-0.2-0.4-0.3-0.7-0.3c-0.4,0-0.7,0.2-0.9,0.5c-0.2,0.3-0.4,0.9-0.4,1.6c0,0.8,0.1,1.3,0.4,1.6
		c0.2,0.3,0.5,0.5,0.9,0.5c0.3,0,0.5-0.1,0.8-0.3S287.4,120.3,287.4,119.9z"/>
	<path class="st0" d="M291.4,121.2c-0.3,0.3-0.5,0.5-0.8,0.6c-0.3,0.1-0.6,0.2-0.9,0.2c-0.5,0-0.9-0.1-1.1-0.4
		c-0.3-0.3-0.4-0.7-0.4-1.2c0-0.3,0.1-0.6,0.2-0.9s0.3-0.4,0.5-0.6c0.2-0.1,0.6-0.2,1-0.3c0.6-0.1,1.1-0.2,1.4-0.3l0-0.2
		c0-0.4-0.1-0.6-0.2-0.8c-0.2-0.2-0.5-0.3-0.9-0.3c-0.4,0-0.6,0.1-0.8,0.2c-0.2,0.1-0.3,0.4-0.4,0.8l-0.8-0.1c0.1-0.6,0.3-1,0.7-1.3
		c0.3-0.3,0.8-0.4,1.4-0.4c0.5,0,0.9,0.1,1.1,0.3c0.3,0.2,0.4,0.4,0.5,0.7c0.1,0.3,0.1,0.7,0.1,1.2v1.3c0,0.9,0,1.4,0.1,1.7
		c0,0.2,0.1,0.5,0.2,0.7h-0.8C291.4,121.7,291.4,121.5,291.4,121.2z M291.3,119.1c-0.3,0.1-0.7,0.3-1.3,0.4
		c-0.3,0.1-0.6,0.1-0.7,0.2c-0.1,0.1-0.2,0.2-0.3,0.3s-0.1,0.3-0.1,0.5c0,0.3,0.1,0.5,0.2,0.6c0.2,0.2,0.4,0.2,0.7,0.2
		c0.3,0,0.5-0.1,0.8-0.2c0.2-0.1,0.4-0.3,0.5-0.6c0.1-0.2,0.2-0.6,0.2-1V119.1z"/>
	<path class="st0" d="M295.8,121.9v-0.7c-0.1,0.3-0.3,0.5-0.5,0.6c-0.2,0.1-0.5,0.2-0.7,0.2c-0.5,0-1-0.3-1.4-0.8
		c-0.4-0.5-0.6-1.2-0.6-2.1c0-0.6,0.1-1.2,0.3-1.6c0.2-0.4,0.4-0.8,0.7-1c0.3-0.2,0.6-0.3,1-0.3c0.3,0,0.5,0.1,0.7,0.2
		c0.2,0.1,0.4,0.3,0.5,0.6v-2.8h0.8v7.7H295.8z M293.3,119.1c0,0.7,0.1,1.3,0.4,1.6s0.5,0.5,0.9,0.5c0.3,0,0.6-0.2,0.9-0.5
		c0.2-0.3,0.4-0.8,0.4-1.5c0-0.8-0.1-1.3-0.4-1.7c-0.2-0.4-0.5-0.5-0.9-0.5c-0.3,0-0.6,0.2-0.8,0.5
		C293.5,117.8,293.3,118.4,293.3,119.1z"/>
	<path class="st0" d="M297,119.1c0-1,0.2-1.7,0.6-2.2c0.4-0.5,0.9-0.7,1.5-0.7c0.6,0,1.1,0.2,1.5,0.7c0.4,0.5,0.6,1.2,0.6,2.1
		c0,1-0.2,1.7-0.6,2.2c-0.4,0.5-0.9,0.7-1.5,0.7c-0.6,0-1.1-0.2-1.5-0.7C297.2,120.8,297,120.1,297,119.1z M297.8,119.1
		c0,0.7,0.1,1.3,0.4,1.6c0.3,0.4,0.6,0.5,1,0.5c0.4,0,0.7-0.2,0.9-0.5s0.4-0.9,0.4-1.6c0-0.7-0.1-1.3-0.4-1.6
		c-0.3-0.4-0.6-0.5-1-0.5c-0.4,0-0.7,0.2-0.9,0.5S297.8,118.4,297.8,119.1z"/>
	<path class="st0" d="M303.8,121.9v-7.7h0.9l3.3,6v-6h0.8v7.7h-0.9l-3.3-6v6H303.8z"/>
	<path class="st0" d="M309.3,119.1c0-1,0.2-1.7,0.6-2.2c0.4-0.5,0.9-0.7,1.5-0.7c0.6,0,1.1,0.2,1.5,0.7c0.4,0.5,0.6,1.2,0.6,2.1
		c0,1-0.2,1.7-0.6,2.2s-0.9,0.7-1.5,0.7c-0.6,0-1.1-0.2-1.5-0.7S309.3,120.1,309.3,119.1z M310.1,119.1c0,0.7,0.1,1.3,0.4,1.6
		c0.3,0.4,0.6,0.5,1,0.5c0.4,0,0.7-0.2,0.9-0.5c0.3-0.4,0.4-0.9,0.4-1.6c0-0.7-0.1-1.3-0.4-1.6s-0.6-0.5-1-0.5
		c-0.4,0-0.7,0.2-0.9,0.5S310.1,118.4,310.1,119.1z"/>
	<path class="st0" d="M314.3,121.9v-1.1h0.9v1.1H314.3z"/>
</g>
<g>
	<path class="st0" d="M262.1,129.7l0.8-0.1c0,0.4,0.1,0.8,0.3,1c0.1,0.2,0.4,0.4,0.6,0.6s0.6,0.2,0.9,0.2c0.5,0,0.9-0.1,1.2-0.4
		s0.4-0.6,0.4-0.9c0-0.2,0-0.4-0.1-0.6c-0.1-0.2-0.2-0.3-0.5-0.4c-0.2-0.1-0.6-0.3-1.3-0.5c-0.6-0.2-1-0.4-1.3-0.5
		c-0.3-0.2-0.4-0.4-0.6-0.7s-0.2-0.6-0.2-0.9c0-0.6,0.2-1.1,0.6-1.5s0.9-0.6,1.6-0.6c0.5,0,0.9,0.1,1.2,0.3s0.6,0.5,0.8,0.8
		c0.2,0.3,0.3,0.8,0.3,1.2l-0.8,0.1c0-0.5-0.2-0.9-0.4-1.1s-0.6-0.4-1.1-0.4c-0.5,0-0.8,0.1-1.1,0.3c-0.2,0.2-0.4,0.5-0.4,0.8
		c0,0.3,0.1,0.6,0.3,0.7c0.2,0.2,0.6,0.3,1.2,0.5c0.6,0.2,1.1,0.3,1.3,0.4c0.4,0.2,0.7,0.5,0.9,0.8c0.2,0.3,0.3,0.7,0.3,1.1
		c0,0.4-0.1,0.8-0.3,1.2s-0.5,0.6-0.8,0.8c-0.4,0.2-0.8,0.3-1.3,0.3c-0.8,0-1.4-0.2-1.9-0.7C262.4,131.2,262.1,130.5,262.1,129.7z"
		/>
	<path class="st0" d="M269.4,132.2v-6.8h-2.1v-0.9h5v0.9h-2.1v6.8H269.4z"/>
	<path class="st0" d="M271.8,129.9V129h2.4v0.9H271.8z"/>
	<path class="st0" d="M279.2,129.5l0.8,0.3c-0.2,0.9-0.5,1.5-1,1.9s-1,0.6-1.7,0.6c-0.6,0-1.1-0.1-1.5-0.4c-0.4-0.3-0.8-0.7-1-1.4
		c-0.3-0.6-0.4-1.4-0.4-2.2c0-0.8,0.1-1.6,0.4-2.1c0.3-0.6,0.6-1,1.1-1.3c0.5-0.3,1-0.4,1.5-0.4c0.6,0,1.1,0.2,1.6,0.6
		c0.4,0.4,0.7,0.9,0.9,1.7l-0.8,0.2c-0.3-1.1-0.8-1.6-1.7-1.6c-0.4,0-0.8,0.1-1.1,0.3c-0.3,0.2-0.6,0.6-0.7,1
		c-0.2,0.5-0.3,1-0.3,1.7c0,1.1,0.2,1.8,0.6,2.4c0.4,0.5,0.9,0.8,1.5,0.8c0.5,0,0.8-0.2,1.2-0.5
		C278.9,130.7,279.1,130.2,279.2,129.5z"/>
	<path class="st0" d="M280.6,132.2v-7.7h4.6v0.9h-3.7v2.3h3.5v0.9h-3.5v2.6h3.9v0.9H280.6z"/>
	<path class="st0" d="M286,132.2v-7.7h2.8c0.6,0,1,0.1,1.3,0.2s0.5,0.4,0.7,0.7c0.2,0.3,0.3,0.7,0.3,1.2c0,0.6-0.2,1-0.5,1.4
		s-0.7,0.6-1.3,0.7c0.2,0.1,0.4,0.3,0.5,0.4c0.2,0.3,0.5,0.6,0.7,1l1.1,2.1h-1l-0.8-1.6c-0.3-0.6-0.6-1-0.7-1.3
		c-0.2-0.2-0.3-0.4-0.5-0.4c-0.2-0.1-0.4-0.1-0.7-0.1h-1v3.4H286z M286.8,127.9h1.8c0.4,0,0.7,0,0.9-0.1c0.2-0.1,0.4-0.2,0.5-0.4
		c0.1-0.2,0.2-0.4,0.2-0.7c0-0.4-0.1-0.7-0.3-0.9c-0.2-0.2-0.6-0.3-1-0.3h-2V127.9z"/>
	<path class="st0" d="M291.7,130.4l0.7-0.1c0.1,0.8,0.5,1.2,1,1.2c0.3,0,0.5-0.1,0.7-0.3c0.2-0.2,0.4-0.5,0.5-0.9
		c0.1-0.5,0.2-1,0.2-1.6v-0.2c-0.2,0.3-0.4,0.6-0.7,0.7c-0.3,0.2-0.6,0.3-0.8,0.3c-0.5,0-1-0.2-1.3-0.7c-0.4-0.4-0.6-1.1-0.6-1.8
		c0-0.8,0.2-1.4,0.6-1.9c0.4-0.5,0.9-0.7,1.4-0.7c0.4,0,0.8,0.1,1.1,0.4c0.3,0.3,0.6,0.6,0.8,1.1c0.2,0.5,0.3,1.2,0.3,2.2
		c0,1.1-0.1,1.9-0.3,2.5c-0.2,0.6-0.5,1-0.8,1.3c-0.3,0.3-0.7,0.4-1.1,0.4c-0.5,0-0.9-0.2-1.2-0.5
		C292,131.5,291.8,131.1,291.7,130.4z M294.9,127c0-0.5-0.1-1-0.4-1.3c-0.2-0.3-0.5-0.5-0.8-0.5c-0.3,0-0.6,0.2-0.9,0.5
		c-0.3,0.3-0.4,0.8-0.4,1.3c0,0.5,0.1,0.9,0.4,1.2c0.2,0.3,0.5,0.4,0.9,0.4c0.3,0,0.6-0.2,0.9-0.5C294.8,128,294.9,127.6,294.9,127z
		"/>
	<path class="st0" d="M298.5,132.2v-1.8h-2.7v-0.9l2.9-5h0.6v5h0.9v0.9h-0.9v1.8H298.5z M298.5,129.5V126l-2,3.5H298.5z"/>
	<path class="st0" d="M304.5,131.3v0.9h-4.2c0-0.4,0.1-0.8,0.3-1.2s0.7-1,1.3-1.6c0.7-0.7,1.2-1.3,1.4-1.7c0.2-0.4,0.3-0.8,0.3-1.1
		c0-0.4-0.1-0.7-0.3-1c-0.2-0.2-0.5-0.4-0.8-0.4c-0.4,0-0.7,0.1-0.9,0.4s-0.3,0.6-0.3,1.1l-0.8-0.1c0.1-0.7,0.3-1.3,0.6-1.7
		c0.4-0.4,0.8-0.6,1.4-0.6c0.6,0,1.1,0.2,1.5,0.6s0.5,0.9,0.5,1.5c0,0.5-0.1,1-0.4,1.4s-0.8,1-1.5,1.8c-0.5,0.5-0.8,0.8-0.9,1
		c-0.1,0.2-0.2,0.3-0.3,0.5H304.5z"/>
	<path class="st0" d="M305,130.4l0.7-0.1c0.1,0.8,0.5,1.2,1,1.2c0.3,0,0.5-0.1,0.7-0.3c0.2-0.2,0.4-0.5,0.5-0.9
		c0.1-0.5,0.2-1,0.2-1.6v-0.2c-0.2,0.3-0.4,0.6-0.7,0.7c-0.3,0.2-0.6,0.3-0.8,0.3c-0.5,0-1-0.2-1.3-0.7s-0.6-1.1-0.6-1.8
		c0-0.8,0.2-1.4,0.6-1.9c0.4-0.5,0.9-0.7,1.4-0.7c0.4,0,0.8,0.1,1.1,0.4s0.6,0.6,0.8,1.1c0.2,0.5,0.3,1.2,0.3,2.2
		c0,1.1-0.1,1.9-0.3,2.5s-0.5,1-0.8,1.3c-0.3,0.3-0.7,0.4-1.1,0.4c-0.5,0-0.9-0.2-1.2-0.5S305.1,131.1,305,130.4z M308.2,127
		c0-0.5-0.1-1-0.4-1.3c-0.2-0.3-0.5-0.5-0.8-0.5c-0.3,0-0.6,0.2-0.9,0.5s-0.4,0.8-0.4,1.3c0,0.5,0.1,0.9,0.4,1.2
		c0.2,0.3,0.5,0.4,0.9,0.4c0.3,0,0.6-0.2,0.9-0.5C308.1,128,308.2,127.6,308.2,127z"/>
	<path class="st0" d="M313.4,131.3v0.9h-4.2c0-0.4,0.1-0.8,0.3-1.2s0.7-1,1.3-1.6c0.7-0.7,1.2-1.3,1.4-1.7c0.2-0.4,0.3-0.8,0.3-1.1
		c0-0.4-0.1-0.7-0.3-1c-0.2-0.2-0.5-0.4-0.8-0.4c-0.4,0-0.7,0.1-0.9,0.4s-0.3,0.6-0.3,1.1l-0.8-0.1c0.1-0.7,0.3-1.3,0.6-1.7
		c0.4-0.4,0.8-0.6,1.4-0.6c0.6,0,1.1,0.2,1.5,0.6s0.5,0.9,0.5,1.5c0,0.5-0.1,1-0.4,1.4s-0.8,1-1.5,1.8c-0.5,0.5-0.8,0.8-0.9,1
		c-0.1,0.2-0.2,0.3-0.3,0.5H313.4z"/>
	<path class="st0" d="M313.8,125.5v-0.9h4.1v0.7c-0.6,0.8-1.1,1.8-1.6,3.1c-0.5,1.3-0.7,2.5-0.8,3.8h-0.8c0-0.6,0.1-1.4,0.3-2.2
		s0.5-1.7,0.8-2.4s0.7-1.4,1.1-2H313.8z"/>
</g>
</svg>
