<svg width="29" height="29" viewBox="0 0 29 29" fill="none" xmlns="http://www.w3.org/2000/svg">
<g id="icono trabajo 1" clip-path="url(#clip0_614_10327)">
<path id="Vector" d="M14.4999 28.5799C22.2758 28.5799 28.5794 22.2763 28.5794 14.5004C28.5794 6.7245 22.2758 0.420898 14.4999 0.420898C6.72402 0.420898 0.42041 6.7245 0.42041 14.5004C0.42041 22.2763 6.72402 28.5799 14.4999 28.5799Z" fill="#009D00"/>
<g id="mqFoDW.tif">
<g id="Group">
<path id="Vector_2" d="M14.6537 15.3522H9.96439C9.96439 15.6451 9.97019 15.9293 9.96439 16.2135C9.96149 16.3469 9.95279 16.4803 9.92089 16.6079C9.79619 17.1212 9.36989 17.4344 8.85369 17.4083C8.33459 17.3822 7.91699 17.011 7.85609 16.4832C7.81839 16.1555 7.83289 15.8191 7.82419 15.4885C7.82419 15.4363 7.82419 15.3841 7.82419 15.3203C6.78309 15.1898 5.95369 14.6968 5.29539 13.8819C5.29539 13.9283 5.29539 13.9718 5.29539 14.0182C5.29539 15.7524 5.29539 17.4837 5.29829 19.2179C5.29829 19.4267 5.31279 19.6355 5.35339 19.8414C5.47809 20.4823 5.89859 20.8767 6.56269 20.9405C7.02959 20.9869 7.49939 20.9927 7.96919 20.9956C8.94359 21.0014 9.91509 20.9956 10.8895 20.9956C10.9533 20.9956 11.0229 21.013 11.0751 21.0478C11.1766 21.1145 11.2085 21.2218 11.1708 21.3378C11.1331 21.4596 11.0432 21.5205 10.9127 21.5205C9.53519 21.5263 8.15769 21.5437 6.78309 21.535C5.46069 21.5263 4.90969 20.6302 4.75889 19.8356C4.73859 19.7254 4.72989 19.6094 4.72989 19.4963C4.72699 16.634 4.72989 13.7717 4.72119 10.9094C4.72119 10.5208 4.80239 10.1612 4.99959 9.82187C5.37949 9.17517 5.95079 8.85327 6.68739 8.84167C7.75459 8.82427 8.82469 8.82717 9.89189 8.82137C9.93539 8.82137 9.97889 8.82137 10.0195 8.82137C10.1094 8.81267 10.1587 8.78077 10.1587 8.67057C10.1587 8.31387 10.15 7.95717 10.1848 7.60337C10.2747 6.68407 11.0258 5.95617 11.948 5.93587C13.1109 5.90977 14.2738 5.90397 15.4367 5.93587C16.3966 5.96487 17.1274 6.69567 17.2173 7.65267C17.2492 7.98327 17.2376 8.31677 17.2463 8.64737C17.2463 8.70247 17.2463 8.76047 17.2463 8.83297C17.313 8.83297 17.371 8.83297 17.4261 8.83297C18.4904 8.83297 19.5518 8.83297 20.6161 8.83297C21.1149 8.83297 21.5731 8.96637 21.9646 9.28537C22.4431 9.67687 22.6374 10.1989 22.649 10.8021C22.6548 11.0399 22.6519 11.2777 22.6693 11.5126C22.6751 11.588 22.7128 11.6721 22.7592 11.7359C23.055 12.1245 23.3798 12.4928 23.6495 12.8959C24.0845 13.5397 24.2527 14.2734 24.2701 15.0419C24.2933 15.9873 24.1077 16.8921 23.6698 17.736C23.4291 18.2 23.1159 18.6089 22.7041 18.9366C22.678 18.9569 22.6664 19.0033 22.6635 19.0381C22.6374 19.3513 22.6403 19.6674 22.5852 19.9719C22.4228 20.8825 21.6891 21.5205 20.764 21.5321C19.2502 21.5495 17.7335 21.5379 16.2197 21.5379C16.1791 21.5379 16.1356 21.5292 16.095 21.5176C15.95 21.4741 15.8659 21.3552 15.8833 21.2218C15.9007 21.0826 16.0051 20.9927 16.1617 20.9927C16.6779 20.984 17.197 20.9753 17.7132 20.9724C18.6586 20.9695 19.604 20.9724 20.5465 20.9695C20.8394 20.9695 21.1178 20.9144 21.3846 20.7781C21.9414 20.491 22.127 19.795 22.0313 19.2846C20.2217 20.3286 18.4353 20.259 16.6634 19.1715C16.5126 19.4615 16.3618 19.7399 16.2197 20.0212C16.0921 20.2735 15.9326 20.4968 15.7296 20.6969C15.0539 21.3639 14.384 22.0367 13.7112 22.7066C13.1225 23.2924 12.2177 23.1967 11.8233 22.5036C11.5681 22.0541 11.6493 21.6162 11.9219 21.2044C11.9741 21.1261 12.0379 21.0536 12.1046 20.9869C12.7745 20.3141 13.4473 19.6413 14.1259 18.9772C14.2419 18.8641 14.3927 18.7858 14.5319 18.7017C14.7929 18.5393 15.0597 18.3856 15.3207 18.2261C15.4193 18.1652 15.4309 18.0956 15.3671 17.9912C14.9379 17.2836 14.7262 16.5064 14.6769 15.6857C14.6711 15.5784 14.6566 15.4711 14.645 15.358L14.6537 15.3522ZM22.0661 11.3792C22.0661 11.1327 22.0777 10.9152 22.0661 10.7006C22.0226 10.0365 21.6601 9.60147 21.0105 9.46227C20.7408 9.40427 20.4566 9.38687 20.1782 9.38687C16.385 9.38107 12.5918 9.38397 8.79859 9.38397C8.13449 9.38397 7.47039 9.38107 6.80629 9.39267C5.88989 9.41007 5.34179 9.94077 5.32149 10.8543C5.30989 11.3763 5.30409 11.9012 5.36789 12.4174C5.50129 13.4498 6.13059 14.1255 7.06149 14.5344C7.28479 14.633 7.53709 14.6678 7.76329 14.7287C7.84449 14.488 7.89379 14.2763 7.98369 14.0849C8.21859 13.5774 8.68549 13.3483 9.23649 13.4469C9.62799 13.5165 9.95569 13.8645 10.0021 14.2618C10.0195 14.4068 10.0282 14.5518 10.0398 14.6997H14.7494C15.2714 11.2168 19.14 9.50287 22.0777 11.3792H22.0661ZM19.4387 11.182C17.168 11.1762 15.2917 13.0351 15.2859 15.2971C15.2772 17.5678 17.1303 19.447 19.3778 19.4557C21.7413 19.4673 23.5016 17.5823 23.5799 15.4914C23.664 13.1975 21.8399 11.1907 19.4387 11.1791V11.182ZM16.6518 8.80977C16.6518 8.59227 16.6518 8.39507 16.6518 8.19787C16.6489 8.01227 16.6518 7.82667 16.6286 7.64397C16.5561 6.98857 16.0834 6.52457 15.4309 6.51877C14.2506 6.50427 13.0674 6.51297 11.8871 6.52747C11.3825 6.53327 11.0403 6.80877 10.8634 7.27567C10.6778 7.76577 10.7474 8.28487 10.701 8.79527H11.3535C11.3535 8.48787 11.3506 8.18917 11.3535 7.89047C11.3622 7.36267 11.6029 7.11907 12.1307 7.10167C12.1626 7.10167 12.1974 7.10167 12.2293 7.10167C13.2124 7.10167 14.1955 7.10167 15.1757 7.10167C15.2714 7.10167 15.3642 7.11037 15.4599 7.12487C15.7818 7.17707 15.9906 7.36557 16.0254 7.69327C16.0602 8.00647 16.0457 8.32837 16.0544 8.64447C16.0544 8.69957 16.0544 8.75467 16.0544 8.80977H16.6518ZM15.5005 8.79527C15.5005 8.57197 15.4918 8.35447 15.5005 8.13987C15.5208 7.77157 15.4019 7.64687 15.0365 7.64977C14.268 7.65557 13.4995 7.65847 12.7339 7.66427C12.5483 7.66427 12.3656 7.67587 12.1829 7.69907C12.0321 7.71937 11.9248 7.81507 11.919 7.97167C11.9074 8.24427 11.9161 8.51687 11.9161 8.79527H15.5005ZM14.0099 19.9574C13.4792 20.4707 12.9311 20.9927 12.4004 21.5263C12.3134 21.6133 12.2612 21.7554 12.2438 21.8801C12.2119 22.115 12.3888 22.3673 12.615 22.4659C12.8354 22.5645 13.079 22.5181 13.2704 22.3296C13.775 21.8337 14.2738 21.332 14.7755 20.8332C14.7987 20.81 14.8161 20.7839 14.8451 20.7491C14.5551 20.4736 14.2709 20.2039 14.0099 19.9574ZM9.38729 15.4392C9.38729 15.1434 9.38729 14.865 9.38729 14.5866C9.38729 14.5054 9.38149 14.4242 9.36119 14.3488C9.30609 14.1255 9.13499 14.0182 8.85949 14.024C8.63619 14.0269 8.44769 14.1487 8.43319 14.3633C8.40999 14.72 8.42739 15.0796 8.42739 15.4421H9.38729V15.4392ZM8.28529 16.0482C8.38389 16.2541 8.45929 16.4484 8.56369 16.6253C8.69999 16.8544 9.10019 16.8689 9.22489 16.6456C9.32639 16.4629 9.38729 16.257 9.46849 16.0482H8.28529ZM15.5875 19.9951C15.312 19.7022 15.0423 19.4209 14.7697 19.1309C14.6537 19.2382 14.5522 19.3339 14.4159 19.4644C14.7291 19.7428 15.0307 20.0096 15.3323 20.2764C15.3961 20.2039 15.4889 20.1053 15.5875 19.9951ZM15.9587 18.5016C15.7789 18.6611 15.6136 18.8061 15.4425 18.9569C15.5585 19.0874 15.6658 19.2092 15.7818 19.3397C15.95 19.1599 16.1066 18.9888 16.2516 18.8351C16.1646 18.7336 16.066 18.6205 15.9616 18.5016H15.9587Z" fill="white"/>
<path id="Vector_3" d="M19.4211 18.7391C17.423 18.7188 15.886 17.0542 16.031 15.0648C16.1731 13.1276 17.887 11.6979 19.8184 11.9386C21.2336 12.1155 22.1848 12.9043 22.6691 14.2499C22.7039 14.3427 22.7387 14.4384 22.7648 14.5341C22.817 14.7255 22.7532 14.8444 22.5763 14.8995C22.3936 14.9546 22.2718 14.8995 22.2167 14.7052C22.1065 14.3079 21.947 13.9367 21.6976 13.6061C21.0161 12.7013 19.8358 12.2808 18.7483 12.5621C17.6202 12.8521 16.7821 13.7801 16.6226 14.9082C16.3993 16.4916 17.481 17.9242 19.0615 18.1446C20.3665 18.3273 21.6773 17.5298 22.1123 16.2886C22.1268 16.2451 22.1413 16.1987 22.15 16.1523C22.1848 15.987 22.3327 15.8913 22.498 15.9319C22.6633 15.9725 22.7445 16.1117 22.7039 16.2741C22.382 17.524 21.2481 18.5245 19.9605 18.6927C19.7807 18.7159 19.6009 18.7246 19.4211 18.742V18.7391Z" fill="white"/>
</g>
</g>
</g>
<defs>
<clipPath id="clip0_614_10327">
<rect width="29" height="29" fill="white"/>
</clipPath>
</defs>
</svg>
